<svg xmlns="http://www.w3.org/2000/svg" width="24" height="1032" viewBox="0 0 24 1032">
    <g id="book">
        <path fill="none" d="M24 120h-24v-24h24z"/>
        <path d="M18 118c1.104 0 2-.896 2-2v-16c0-1.104-.896-2-2-2h-6v7l-2.5-1.5-2.5 1.5v-7h-1c-1.104 0-2 .896-2 2v16c0 1.104.896 2 2 2h12z"/>
    </g>
    <g id="event">
        <path d="M17 132h-5v5h5v-5zm-1-11v2h-8v-2h-2v2h-1c-1.105 0-1.99.896-1.99 2l-.01 14c0 1.104.895 2 2 2h14c1.104 0 2-.896 2-2v-14c0-1.104-.896-2-2-2h-1v-2h-2zm3 18h-14v-11h14v11z"/>
        <path fill="none" d="M24 144h-24v-24h24z"/>
    </g>
    <g id="delete">
        <path d="M6 91c0 1.104.896 2 2 2h8c1.104 0 2-.896 2-2v-12h-12v12zm12-15h-2.5l-1-1h-5l-1 1h-2.5c-.553 0-1 .447-1 1v1h14v-1c0-.553-.448-1-1-1z"/>
        <path fill="none" d="M24 96h-24v-24h24z"/>
    </g>
    <g id="google">
        <path d="M16.3 253.449l-1.082-.851c-.362-.299-.817-.69-.817-1.418 0-.731.545-1.291.972-1.621 1.308-1.014 2.567-2.098 2.567-4.338 0-2.067-1.271-3.257-2.035-3.923h1.746l1.25-1.25h-6.234c-4.36 0-6.598 2.716-6.598 5.727 0 2.327 1.789 4.823 4.98 4.823h.802c-.125.351-.35.841-.35 1.301 0 1.017.421 1.437.921 2-1.399.092-4.013.429-5.939 1.605-1.838 1.096-2.283 2.63-2.283 3.746 0 2.303 2.063 4.5 6.569 4.5 5.35 0 8.031-2.957 8.031-5.878 0-2.155-1.134-3.271-2.5-4.423zm-7.648-9.136c0-2.211 1.312-3.215 2.688-3.215 2.645 0 4.01 3.451 4.01 5.536 0 2.571-2.066 3.064-2.887 3.064-2.469.002-3.811-3.057-3.811-5.385zm3.648 17.987c-3.326 0-5.45-1.491-5.45-3.7 0-2.201 1.963-2.905 2.648-3.156 1.305-.438 2.984-.494 3.27-.494.307 0 .461 0 .707.024 2.367 1.692 3.375 2.439 3.375 4.026 0 1.77-1.823 3.3-4.55 3.3z"/>
        <path fill="none" d="M24 264h-24v-24h24z"/>
    </g>
    <g id="home">
        <path d="M10 236v-6h4v6h5v-8h3l-10-9-10 9h3v8z"/>
        <path fill="none" d="M24 240h-24v-24h24z"/>
    </g>
    <g id="explore">
        <path d="M12 154.9c-.607 0-1.1.492-1.1 1.1s.493 1.1 1.1 1.1c.607 0 1.1-.492 1.1-1.1s-.493-1.1-1.1-1.1zm0-8.9c-5.522 0-10 4.477-10 10 0 5.522 4.478 10 10 10 5.523 0 10-4.478 10-10 0-5.523-4.477-10-10-10zm2.191 12.192l-8.191 3.808 3.808-8.192 8.192-3.808-3.809 8.192z"/>
        <path fill="none" d="M24 168h-24v-24h24z"/>
    </g>
    <g id="favorite">
        <path d="M16.5 197c-1.955 0-3.83 1.268-4.5 3-.67-1.732-2.547-3-4.5-3-2.543 0-4.5 1.932-4.5 4.5 0 3.529 3.793 6.258 9 11.5 5.207-5.242 9-7.971 9-11.5 0-2.568-1.957-4.5-4.5-4.5z"/>
        <path fill="none" d="M24 216h-24v-24h24z"/>
    </g>
    <g id="readlater">
        <path d="M5 501l7-3 7 3v-16c0-1.104-.896-2-2-2h-10c-1.104 0-1.99.896-1.99 2l-.01 16z"/>
        <path fill="none" d="M24 504h-24v-24h24z"/>
    </g>
    <g id="list">
        <path d="M3 397h2v-2h-2v2zm0 5h2v-2h-2v2zm0-10h2v-2h-2v2zm4 5h14v-2h-14v2zm0 5h14v-2h-14v2zm0-12v2h14v-2h-14z"/>
        <path fill="none" d="M24 408h-24v-24h24z"/>
    </g>
    <g id="keep">
        <path fill="none" d="M24 336h-24v-24h24z"/>
        <path d="M18 316v-1h-12v1c0 1.104.896 2 2 2v6.184c-1.163.413-2 1.513-2 2.816v1h5.2v6h1.6v-6h5.2v-1c0-1.304-.837-2.403-2-2.816v-6.184c1.104 0 2-.896 2-2z"/>
    </g>
    <g id="print">
        <path d="M19 464h-14c-1.656 0-3 1.344-3 3v6h4v4h12v-4h4v-6c0-1.657-1.343-3-3-3zm-3 11h-8v-5h8v5zm3-7c-.553 0-1-.447-1-1s.447-1 1-1 1 .447 1 1-.447 1-1 1zm-1-9h-12v4h12v-4z"/>
        <path fill="none" d="M24 480h-24v-24h24z"/>
    </g>
    <g id="googlePlus">
        <path fill="none" d="M24 288h-24v-24h24z"/>
        <path d="M21 274v-3h-2v3h-3v2h3v3h2v-3h3v-2h-3zm-7.7 3.449l-1.082-.851c-.362-.299-.818-.69-.818-1.418 0-.731.546-1.291.972-1.621 1.308-1.014 2.567-2.098 2.567-4.338 0-2.067-1.271-3.257-2.035-3.923h1.746l1.25-1.25h-6.234c-4.36 0-6.598 2.716-6.598 5.727 0 2.327 1.789 4.823 4.98 4.823h.802c-.125.351-.35.841-.35 1.301 0 1.017.421 1.437.921 2-1.399.092-4.013.429-5.939 1.605-1.837 1.096-2.282 2.63-2.282 3.746 0 2.303 2.063 4.5 6.569 4.5 5.35 0 8.031-2.957 8.031-5.878 0-2.155-1.134-3.271-2.5-4.423zm-7.648-9.136c0-2.211 1.312-3.215 2.688-3.215 2.644 0 4.01 3.451 4.01 5.536 0 2.571-2.067 3.064-2.887 3.064-2.469.002-3.811-3.057-3.811-5.385zm3.648 17.987c-3.326 0-5.45-1.491-5.45-3.7 0-2.201 1.963-2.905 2.648-3.156 1.305-.438 2.984-.494 3.269-.494.307 0 .462 0 .708.024 2.367 1.692 3.375 2.439 3.375 4.026 0 1.77-1.823 3.3-4.55 3.3z"/>
    </g>
    <g id="accountBox">
        <path d="M3 5v14c0 1.104.895 2 2 2h14c1.104 0 2-.896 2-2v-14c0-1.104-.896-2-2-2h-14c-1.105 0-2 .896-2 2zm12 4c0 1.658-1.344 3-3 3s-3-1.342-3-3c0-1.656 1.344-3 3-3s3 1.344 3 3zm-9 8c0-2 4-3.1 6-3.1s6 1.1 6 3.1v1h-12v-1z"/>
        <path fill="none" d="M24 24h-24v-24h24z"/>
    </g>
    <g id="accountCircle">
        <path d="M12 26c-5.524 0-10 4.477-10 10s4.476 10 10 10c5.523 0 10-4.477 10-10s-4.477-10-10-10zm0 3c1.656 0 3 1.344 3 3 0 1.658-1.344 3-3 3-1.657 0-3-1.342-3-3 0-1.656 1.343-3 3-3zm0 14.2c-2.504 0-4.708-1.279-5.999-3.22.027-1.987 4.004-3.08 5.999-3.08 1.994 0 5.971 1.093 5.998 3.08-1.291 1.941-3.494 3.22-5.998 3.22z"/>
        <path fill="none" d="M24 48h-24v-24h24z"/>
    </g>
    <g id="label">
        <path d="M18.374 341.879c-.544-.543-1.294-.879-2.122-.879l-11.252.01c-1.104 0-2 .887-2 1.99v10c0 1.104.896 2 2 2h11.252c.828 0 1.578-.336 2.122-.879l4.626-6.121-4.626-6.121z"/>
        <path fill="none" d="M24 360h-24v-24h24z"/>
    </g>
    <g id="labelNew">
        <path fill="none" d="M24 384h-24v-24h24z"/>
        <path d="M18.374 365.879c-.544-.543-1.294-.879-2.122-.879l-11.252.01c-1.104 0-2 .887-2 1.99v10c0 1.104.896 2 2 2h11.252c.828 0 1.578-.336 2.122-.879l4.626-6.121-4.626-6.121zm-4.374 7.121h-3v3h-2v-3h-3v-2h3v-3h2v3h3v2z"/>
    </g>
    <g id="receipt">
        <path d="M18 521h-12v-2h12v2zm0-4h-12v-2h12v2zm0-4h-12v-2h12v2zm-15 13l1.5-1.5 1.5 1.5 1.5-1.5 1.5 1.5 1.5-1.5 1.5 1.5 1.5-1.5 1.5 1.5 1.5-1.5 1.5 1.5 1.5-1.5 1.5 1.5v-20l-1.5 1.5-1.5-1.5-1.5 1.5-1.5-1.5-1.5 1.5-1.5-1.5-1.5 1.5-1.5-1.5-1.5 1.5-1.5-1.5-1.5 1.5-1.5-1.5v20z"/>
        <path fill="none" d="M24 528h-24v-24h24z"/>
    </g>
    <g id="lock">
        <path fill="none" d="M24 432h-24v-24h24zM12 410.9c-2.209 0-4 1.891-4 4.1v1h8v-1c0-2.209-1.791-4.1-4-4.1z"/>
        <path d="M18 416v-1c0-3.313-2.688-6-6-6-3.313 0-5.99 2.687-5.99 6l-.01 1c-1.104 0-2 .896-2 2v10c0 1.104.896 2 2 2h12c1.104 0 2-.896 2-2v-10c0-1.104-.896-2-2-2zm-6 9c-1.104 0-2-.896-2-2s.896-2 2-2 2 .896 2 2-.896 2-2 2zm4-9h-8v-1c0-2.209 1.791-4.1 4-4.1s4 1.891 4 4.1v1z"/>
    </g>
    <path d="M18 440.5h-10v-1c0-2.209 1.791-4.1 4-4.1 1.863 0 3.417 1.352 3.861 3.1h2.039c-.476-2.836-2.928-5-5.899-5-3.314 0-6.001 2.687-6.001 6v1c-1.104 0-2 .896-2 2v10c0 1.104.896 2 2 2h12c1.104 0 2-.896 2-2v-10c0-1.104-.896-2-2-2zm-6 9c-1.104 0-2-.896-2-2s.896-2 2-2 2 .896 2 2-.896 2-2 2z" id="lockOpen"/>
    <g id="bookmark">
        <path d="M17 51h-10c-1.104 0-1.989.896-1.989 2l-.011 16 7-3 7 3v-16c0-1.104-.896-2-2-2z"/>
        <path fill="none" d="M24 72h-24v-24h24z"/>
    </g>
    <g id="extension">
        <path fill="none" d="M24 192h-24v-24h24z"/>
        <path d="M21.5 178h-1.5v-4c0-1.104-.896-2-2-2h-4v-1.5c0-1.381-1.119-2.5-2.5-2.5s-2.5 1.119-2.5 2.5v1.5h-4c-1.104 0-1.99.896-1.99 2l-.003 3.8h1.493c1.491 0 2.7 1.209 2.7 2.7s-1.209 2.7-2.7 2.7h-1.497l-.003 3.8c0 1.104.896 2 2 2h3.8v-1.5c0-1.491 1.209-2.7 2.7-2.7s2.7 1.209 2.7 2.7v1.5h3.8c1.104 0 2-.896 2-2v-4h1.5c1.381 0 2.5-1.119 2.5-2.5s-1.119-2.5-2.5-2.5z"/>
    </g>
    <g id="history">
        <path fill="none" d="M24 312h-24v-24h24z"/>
        <path opacity=".9" enable-background="new" d="M12.495 290c-3.526 0-6.589 1.922-8.224 4.771l-2.271-2.271v6.5h6.5l-2.751-2.751c1.209-2.514 3.774-4.249 6.751-4.249 4.145 0 7.5 3.358 7.5 7.5s-3.355 7.5-7.5 7.5c-3.265 0-6.034-2.089-7.064-5h-2.093c1.097 4.032 4.77 7 9.152 7 5.25 0 9.505-4.253 9.505-9.5s-4.255-9.5-9.505-9.5zm-1.495 5v5.114l4.715 2.792.771-1.286-3.986-2.37v-4.25h-1.5z"/>
    </g>
    <g id="schedule">
        <path fill-opacity=".9" d="M11.995 554c-5.527 0-9.995 4.477-9.995 10s4.468 10 9.995 10c5.526 0 10.005-4.477 10.005-10s-4.479-10-10.005-10zm.005 18c-4.42 0-8-3.582-8-8s3.58-8 8-8 8 3.582 8 8-3.58 8-8 8z"/>
        <path fill="none" d="M24 576h-24v-24h24z"/>
        <path fill-opacity=".9" d="M12.5 558h-1.5v7l5.303 3.182.75-1.25-4.553-2.732z"/>
    </g>
    <g id="starRate">
        <path d="M12 686.3l3.709 2.7-1.419-4.36 3.71-2.64-4.55.002-1.45-4.502-1.451 4.502-4.549-.002 3.71 2.64-1.417 4.36z"/>
        <path fill="none" d="M24 696h-24v-24h24z"/>
    </g>
    <g id="theaters">
        <path d="M18 771v2h-2v-2h-8v2h-2v-2h-2v18h2v-2h2v2h8v-2h2v2h2v-18h-2zm-10 14h-2v-2h2v2zm0-4h-2v-2h2v2zm0-4h-2v-2h2v2zm10 8h-2v-2h2v2zm0-4h-2v-2h2v2zm0-4h-2v-2h2v2z"/>
        <path fill="none" d="M24 792h-24v-24h24z"/>
    </g>
    <g id="search">
        <path d="M15.502 590h-.794l-.274-.274c.975-1.137 1.566-2.61 1.566-4.226 0-3.59-2.91-6.5-6.5-6.5s-6.5 2.91-6.5 6.5 2.91 6.5 6.5 6.5c1.614 0 3.088-.592 4.225-1.567l.276.275v.792l4.999 4.991 1.49-1.491-4.988-5zm-6.002 0c-2.485 0-4.5-2.015-4.5-4.5s2.015-4.5 4.5-4.5 4.5 2.015 4.5 4.5-2.015 4.5-4.5 4.5z"/>
        <path fill="none" d="M24 600h-24v-24h24z"/>
    </g>
    <g id="swapHoriz">
        <path d="M17.01 730v3l4.99-4.5-4.99-4.5v3h-7.01v3h7.01zm-10.02 9v-3h7.01v-3h-7.01v-3l-4.99 4.5 4.99 4.5z"/>
        <path fill="none" d="M24 744h-24v-24h24z"/>
    </g>
    <g id="swapVert">
        <path d="M13 761.01h-3l4.5 4.99 4.5-4.99h-3v-7.01h-3v7.01zm-9-10.02h3v7.01h3v-7.01h3l-4.5-4.99-4.5 4.99z"/>
        <path fill="none" d="M0 768v-24h24v24z"/>
    </g>
    <g id="settings">
        <path fill="none" d="M24 624h-24v-24h24z"/>
        <path d="M19.43 612.976c.041-.319.069-.644.069-.976s-.028-.655-.069-.976l2.112-1.654c.188-.152.243-.422.118-.638l-2-3.465c-.125-.216-.387-.304-.612-.217l-2.489 1.003c-.517-.396-1.082-.73-1.69-.982l-.375-2.649c-.038-.239-.244-.422-.494-.422h-4c-.25 0-.456.183-.494.421l-.375 2.649c-.61.253-1.174.588-1.691.983l-2.488-1.003c-.226-.087-.488.001-.612.217l-2 3.465c-.125.216-.07.485.118.638l2.112 1.654c-.042.32-.07.644-.07.976s.029.656.071.976l-2.112 1.653c-.188.152-.243.422-.118.639l2 3.465c.125.216.386.304.612.217l2.489-1.003c.516.396 1.081.73 1.69.982l.375 2.649c.037.239.243.422.493.422h4c.25 0 .456-.183.494-.421l.375-2.649c.609-.253 1.174-.587 1.689-.983l2.489 1.004c.226.086.487-.001.612-.217l2-3.465c.125-.216.07-.485-.118-.639l-2.111-1.654zm-7.43 2.524c-1.933 0-3.5-1.567-3.5-3.5s1.567-3.5 3.5-3.5c1.934 0 3.5 1.567 3.5 3.5s-1.566 3.5-3.5 3.5z"/>
    </g>
    <g id="translate">
        <path d="M3 833.25v3.75h3.75l11.064-11.064-3.75-3.75-11.064 11.064zm17.707-10.207c.391-.391.391-1.023 0-1.414l-2.335-2.336c-.392-.391-1.024-.391-1.415 0l-1.832 1.832 3.75 3.75 1.832-1.832zm-8.707 11.957l-2 2h13v-2h-11z"/>
        <path fill="none" d="M24 840h-24v-24h24z"/>
    </g>
    <g id="viewArray">
        <path d="M4 858h3v-13h-3v13zm14-13v13h3v-13h-3zm-10 13h9v-13h-9v13z"/>
        <path fill="none" d="M24 864h-24v-24h24z"/>
    </g>
    <g id="viewColumn">
        <path d="M10 882h5v-13h-5v13zm-6 0h5v-13h-5v13zm12-13v13h5v-13h-5z"/>
        <path fill="none" d="M24 888h-24v-24h24z"/>
    </g>
    <g id="viewHeadline">
        <path d="M4 903h17v-2h-17v2zm0 4h17v-2h-17v2zm0-8h17v-2h-17v2zm0-6v2h17v-2h-17z"/>
        <path fill="none" d="M24 912h-24v-24h24z"/>
    </g>
    <g id="viewList">
        <path d="M4 926h4v-4h-4v4zm0 5h4v-4h-4v4zm0-10h4v-4h-4v4zm5 5h12v-4h-12v4zm0 5h12v-4h-12v4zm0-14v4h12v-4h-12z"/>
        <path fill="none" d="M24 936h-24v-24h24z"/>
    </g>
    <g id="viewModule">
        <path d="M4 947h5v-6h-5v6zm0 7h5v-6h-5v6zm6 0h5v-6h-5v6zm6 0h5v-6h-5v6zm-6-7h5v-6h-5v6zm6-6v6h5v-6h-5z"/>
        <path fill="none" d="M24 960h-24v-24h24z"/>
    </g>
    <g id="viewStream">
        <path d="M4 1002h17v-6h-17v6zm0-13v6h17v-6h-17z"/>
        <path fill="none" d="M24 1008h-24v-24h24z"/>
    </g>
    <g id="viewQuilt">
        <path d="M10 978h5v-6h-5v6zm-6 0h5v-13h-5v13zm12 0h5v-6h-5v6zm-6-13v6h11v-6h-11z"/>
        <path fill="none" d="M24 984h-24v-24h24z"/>
    </g>
    <g id="work">
        <path d="M14 1011h-4l-2 2v1h-4c-1.105 0-1.99.895-1.99 2l-.01 10c0 1.105.895 2 2 2h16c1.105 0 2-.895 2-2v-10c0-1.105-.895-2-2-2h-4v-1l-2-2zm0 3h-4v-1h4v1z"/>
        <path fill="none" d="M24 1032h-24v-24h24z"/>
    </g>
    <g id="store">
        <path d="M20 700h-16v2h16v-2zm1 7l-1-4h-16l-1 4v1c0 .552.448 1 1 1v7h10v-7h4v7h2v-7c.553 0 1-.448 1-1v-1zm-9 6h-6v-4h6v4z"/>
        <path fill="none" d="M24 720h-24v-24h24z"/>
    </g>
    <g id="shoppingBasket">
        <path fill="none" d="M24 648h-24v-24h24z"/>
        <path d="M22 633h-4.788l-4.38-6.555c-.307-.459-.928-.583-1.387-.276-.113.076-.205.17-.275.277h-.001l-.004.004-.001.001-4.376 6.549h-4.788c-.552 0-1 .448-1 1l.036.268 2.537 9.269c.234.843 1.008 1.463 1.927 1.463h13c.919 0 1.693-.62 1.927-1.464l2.537-9.269.036-.267c0-.552-.448-1-1-1zm-10 8c-1.104 0-2-.896-2-2s.896-2 2-2 2 .896 2 2-.896 2-2 2zm-3-8l3-4.4 3 4.4h-6z"/>
    </g>
    <g id="shoppingCart">
        <path d="M7 666c-1.104 0-1.99.896-1.99 2s.886 2 1.99 2 2-.896 2-2-.896-2-2-2zm-6-14h2l3.597 7.587-1.352 2.452c-.156.285-.245.613-.245.961 0 1.104.896 2 2 2h12v-2h-11.577c-.138 0-.25-.111-.25-.25l.031-.121.899-1.629h7.449c.753 0 1.407-.415 1.749-1.029l3.576-6.487c.078-.144.123-.309.123-.484 0-.553-.448-1-1-1h-14.787l-.405-.855c-.321-.677-1.01-1.145-1.808-1.145h-2v2zm16 14c-1.104 0-1.99.896-1.99 2s.887 2 1.99 2 2-.896 2-2-.896-2-2-2z"/>
        <path fill="none" d="M24 672h-24v-24h24z"/>
    </g>
    <g id="save">
        <path fill="none" d="M24 552h-24v-24h24z"/>
        <path d="M17 531h-12c-1.105 0-2 .896-2 2v14c0 1.104.895 2 2 2h14c1.104 0 2-.896 2-2v-12l-4-4zm-5 16c-1.657 0-3-1.343-3-3s1.343-3 3-3 3 1.343 3 3-1.343 3-3 3zm3-10h-10v-4h10v4z"/>
    </g>
    <g id="today">
        <path fill="none" d="M24 816h-24v-24h24z"/>
        <path d="M17 803h-6v6h6v-6zm-2 4h-2v-2h2v2zm4-12h-1v-2h-2v2h-8v-2h-2v2h-1c-1.105 0-1.99.896-1.99 2l-.01 14c0 1.104.895 2 2 2h14c1.104 0 2-.896 2-2v-14c0-1.104-.896-2-2-2zm0 16h-14v-11h14v11z"/>
    </g>
</svg>
