<svg xmlns="http://www.w3.org/2000/svg" width="24" height="696" viewBox="0 0 24 696">
    <g id="games">
        <path fill="none" d="M24 48h-24v-24h24z"/>
        <path d="M12 34.586l2.414-2.414c.361-.362.586-.862.586-1.414v-4.758h-6v4.758c0 .552.224 1.052.586 1.414l2.414 2.414zm-3.828-1.001c-.362-.361-.862-.585-1.414-.585h-4.758v6h4.758c.552 0 1.052-.224 1.414-.586l2.414-2.414-2.414-2.415zm3.828 3.829l-2.414 2.414c-.362.362-.586.862-.586 1.414v4.758h6v-4.758c0-.552-.225-1.052-.586-1.414l-2.414-2.414zm5.242-4.414c-.553 0-1.053.224-1.414.585l-2.414 2.415 2.414 2.414c.361.362.861.586 1.414.586h4.758v-6h-4.758z"/>
    </g>
    <g id="movie">
        <path d="M18 124l2 4h-3l-2-4h-2l2 4h-3l-2-4h-2l2 4h-3l-2-4h-1c-1.104 0-1.99.896-1.99 2l-.01 12c0 1.104.896 2 2 2h16c1.104 0 2-.896 2-2v-14h-4z"/>
        <path fill="none" d="M24 144h-24v-24h24z"/>
    </g>
    <g id="news">
        <path d="M19.5 148.5l-1.5-1.5-1.5 1.5-1.5-1.5-1.5 1.5-1.5-1.5-1.5 1.5-1.5-1.5-1.5 1.5-1.5-1.5-1.5 1.5-1.5-1.5v16c0 1.104.896 2 2 2h14c1.104 0 1.99-.896 1.99-2l.01-16-1.5 1.5zm-.5 11.5h-6v-1h6v1zm0 2h-6v-1h6v1zm0-4h-6v-1h6v1zm0-2h-6v-1h6v1zm-7 6h-7v-7h7v7zm7-8h-14v-2h14v2z"/>
        <path fill="none" d="M24 168h-24v-24h24z"/>
    </g>
    <g id="mic">
        <path d="M12 63c1.657 0 2.99-1.344 2.99-3l.009-6c0-1.658-1.342-3-2.999-3-1.656 0-3 1.342-3 3v6c0 1.656 1.344 3 3 3zm5.299-3c0 3-2.537 5.1-5.299 5.1s-5.3-2.1-5.3-5.1h-1.7c0 3.415 2.719 6.233 6 6.718v3.282h2v-3.282c3.279-.483 6-3.303 6-6.718h-1.701z"/>
        <path fill="none" d="M24 72h-24v-24h24z"/>
    </g>
    <g id="micOff">
        <path fill="none" d="M24 120h-24v-24h24zM24 120h-24v-24h24z"/>
        <path d="M19 108h-1.7c0 .745-.157 1.433-.434 2.048l1.229 1.229c.569-.972.905-2.087.905-3.277zM14.982 108.166l.018-.166v-6c0-1.658-1.344-3-3-3s-2.999 1.342-2.999 3v.183l5.981 5.983zM4.273 100l-1.273 1.273 6.009 6.009.001.718c0 1.656 1.334 3 2.99 3 .224 0 .441-.029.65-.076l1.66 1.66c-.713.331-1.5.516-2.312.516-2.761 0-5.298-2.1-5.298-5.1h-1.7c0 3.415 2.721 6.233 6 6.718v3.282h2v-3.282c.906-.134 1.766-.451 2.541-.903l4.186 4.185 1.273-1.272-16.727-16.728z"/>
    </g>
    <g id="micNone">
        <path d="M12 87c1.657 0 2.99-1.344 2.99-3l.009-6c0-1.658-1.342-3-2.999-3-1.656 0-3 1.342-3 3v6c0 1.656 1.344 3 3 3zm-1.2-9.1c0-.662.539-1.2 1.2-1.2s1.199.541 1.199 1.2l-.01 6.199c0 .662-.533 1.2-1.189 1.2-.662 0-1.2-.538-1.2-1.2v-6.199zm6.499 6.1c0 3-2.537 5.1-5.299 5.1s-5.3-2.1-5.3-5.1h-1.7c0 3.415 2.719 6.233 6 6.718v3.282h2v-3.282c3.279-.483 6-3.303 6-6.718h-1.701z"/>
        <path fill="none" d="M24 96h-24v-24h24z"/>
    </g>
    <g id="pause">
        <path d="M6 187h4v-14h-4v14zm8-14v14h4v-14h-4z"/>
        <path fill="none" d="M24 192h-24v-24h24z"/>
    </g>
    <g id="fastforward">
        <path d="M4 18l8.5-6-8.5-6v12zm9-12v12l8.5-6-8.5-6z"/>
        <path fill="none" d="M24 24h-24v-24h24z"/>
    </g>
    <g id="videocam">
        <path fill="none" d="M24 528h-24v-24h24z"/>
        <path d="M16 515.5v-3.5c0-.552-.448-1-1-1h-10c-.552 0-1 .448-1 1v8c0 .552.448 1 1 1h10c.552 0 1-.448 1-1v-3.5l4 4v-9l-4 4z"/>
    </g>
    <g id="videocamOff">
        <path fill="none" d="M24 552h-24v-24h24z"/>
        <path d="M20 535.817l-4 4v-3.817c0-.552-.448-1-1-1h-4.181l9.181 9.182v-8.365zM4.273 531l-1.273 1.273 2.752 2.752-.752-.025c-.552 0-1 .447-1 1v8c0 .552.448 1 1 1h10c.205 0 .385-.077.544-.183l4.185 4.183 1.271-1.273-16.727-16.727z"/>
    </g>
    <g id="youtube">
        <path fill="none" d="M24 576h-24v-24h24z"/>
        <path d="M20.002 556.4c-.602-.197-4.301-.4-8.002-.4-3.699 0-7.398.188-8 .384-1.564.516-2 4.02-2 7.616s.436 7.1 2 7.616c.602.196 4.301.384 8 .384 3.701 0 7.4-.188 8.002-.384 1.562-.518 1.988-4.021 1.988-7.616s-.426-7.084-1.988-7.6zm-10.002 12.1v-9l6 4.5-6 4.5z"/>
    </g>
    <g id="web">
        <path d="M20 676h-16c-1.104 0-1.99.896-1.99 2l-.01 12c0 1.104.896 2 2 2h16c1.104 0 2-.896 2-2v-12c0-1.104-.896-2-2-2zm-5 14h-11v-4h11v4zm0-5h-11v-4h11v4zm5 5h-4v-9h4v9z"/>
        <path fill="none" d="M24 696h-24v-24h24z"/>
    </g>
    <g id="volumeMute">
        <path d="M7 633v6h4l5 5v-16l-5 5h-4z"/>
        <path fill="none" d="M24 648h-24v-24h24z"/>
    </g>
    <g id="volumeOff">
        <path d="M16.5 660c0-1.766-1.02-3.29-2.5-4.027v2.209l2.454 2.454c.03-.208.046-.42.046-.636zm2.5 0c0 .939-.204 1.824-.539 2.643l1.514 1.516c.65-1.246 1.025-2.658 1.025-4.159 0-4.282-2.993-7.859-7-8.77v2.062c2.891.862 5 3.538 5 6.708zm-14.727-9l-1.273 1.273 4.727 4.727h-4.727v6h4l5 5v-6.727l4.255 4.255c-.669.517-1.423.93-2.255 1.178v2.062c1.377-.312 2.629-.945 3.686-1.811l2.041 2.043 1.273-1.273-9-9-7.727-7.727zm7.727 1l-2.091 2.091 2.091 2.091v-4.182z"/>
        <path fill="none" d="M24 672h-24v-24h24z"/>
    </g>
    <g id="volumeUp">
        <path d="M3 585v6h4l5 5v-16l-5 5h-4zm13.5 3c0-1.766-1.02-3.29-2.5-4.027v8.057c1.48-.74 2.5-2.264 2.5-4.03zm-2.5-8.77v2.062c2.891.86 5 3.536 5 6.706s-2.109 5.846-5 6.706v2.062c4.007-.909 7-4.485 7-8.77s-2.993-7.855-7-8.766z"/>
        <path fill="none" d="M24 600h-24v-24h24z"/>
    </g>
    <g id="volumeDown">
        <path d="M18.5 612c0-1.766-1.02-3.29-2.5-4.027v8.057c1.48-.74 2.5-2.264 2.5-4.03zm-13.5-3v6h4l5 5v-16l-5 5h-4z"/>
        <path fill="none" d="M24 624h-24v-24h24z"/>
    </g>
    <g id="replay">
        <path fill="none" d="M0 480v24h24v-24z"/>
        <path d="M12 485v-3.5l-5 5 5 5v-4.5c3.312 0 6 2.688 6 6s-2.688 6-6 6c-3.313 0-6-2.688-6-6h-2c0 4.418 3.582 8 8 8s8-3.582 8-8-3.582-8-8-8z"/>
    </g>
    <g id="pausecircleFill">
        <path fill="none" d="M24 216h-24v-24h24z"/>
        <path d="M12 194c-5.523 0-10 4.477-10 10s4.477 10 10 10 10-4.477 10-10-4.477-10-10-10zm-1 14h-2v-8h2v8zm4 0h-2v-8h2v8z"/>
    </g>
    <g id="pausecircleOutline">
        <path fill="none" d="M24 240h-24v-24h24z"/>
        <path d="M9 232h2v-8h-2v8zm3-14c-5.523 0-10 4.477-10 10s4.477 10 10 10 10-4.477 10-10-4.477-10-10-10zm0 18c-4.411 0-8-3.589-8-8s3.589-8 8-8 8 3.589 8 8-3.589 8-8 8zm1-4h2v-8h-2v8z"/>
    </g>
    <g id="play">
        <path d="M8 245v14l11-7z"/>
        <path fill="none" d="M24 264h-24v-24h24z"/>
    </g>
    <g id="skipNext">
        <path d="M6 378l8.5-6-8.5-6v12zm10-12v12h2v-12h-2z"/>
        <path fill="none" d="M24 384h-24v-24h24z"/>
    </g>
    <g id="skipPrevious">
        <path d="M6 402h2v-12h-2zM9.5 396l8.5 6v-12z"/>
        <path fill="none" d="M0 384v24h24v-24z"/>
    </g>
    <g id="stop">
        <path fill="none" d="M24 432h-24v-24h24z"/>
        <path d="M18 426h-12v-12h12z"/>
    </g>
    <g id="rewind">
        <path d="M11 450v-12l-8.5 6 8.5 6zm.5-6l8.5 6v-12l-8.5 6z"/>
        <path fill="none" d="M0 432v24h24v-24z"/>
    </g>
    <g id="repeat">
        <path d="M12 460v-2.5l-4 4 4 4v-3.5c3.312 0 6 2.688 6 6 0 1.013-.253 1.966-.697 2.803l1.459 1.459c.78-1.235 1.238-2.694 1.238-4.262 0-4.418-3.582-8-8-8zm0 14c-3.313 0-6-2.688-6-6 0-1.013.253-1.966.697-2.803l-1.459-1.459c-.78 1.235-1.238 2.694-1.238 4.262 0 4.418 3.582 8 8 8v2.5l4-4-4-4v3.5z"/>
        <path fill="none" d="M24 480h-24v-24h24z"/>
    </g>
    <g id="playcircleFill">
        <path fill="none" d="M24 288h-24v-24h24z"/>
        <path d="M12 266c-5.523 0-10 4.477-10 10s4.477 10 10 10 10-4.477 10-10-4.477-10-10-10zm-2 14.5v-9l6 4.5-6 4.5z"/>
    </g>
    <g id="playcircleOutline">
        <path fill="none" d="M24 312h-24v-24h24z"/>
        <path d="M10 304.5l6-4.5-6-4.5v9zm2-14.5c-5.523 0-10 4.477-10 10s4.477 10 10 10 10-4.477 10-10-4.477-10-10-10zm0 18c-4.411 0-8-3.589-8-8s3.589-8 8-8 8 3.589 8 8-3.589 8-8 8z"/>
    </g>
    <g id="queue">
        <path fill="none" d="M24 336h-24v-24h24z"/>
        <path d="M3 317h-2v16c0 1.104.896 2 2 2h16v-2h-16v-16zm18-4h-14c-1.104 0-2 .896-2 2v14c0 1.104.896 2 2 2h14c1.104 0 2-.896 2-2v-14c0-1.104-.896-2-2-2zm-2 10h-4v4h-2v-4h-4v-2h4v-4h2v4h4v2z"/>
    </g>
    <g id="shuffle">
        <path fill="none" d="M24 360h-24v-24h24z"/>
        <path d="M10.586 345.172l-5.172-5.172-1.414 1.414 5.172 5.172 1.414-1.414zm3.914-5.172l2.043 2.043-12.543 12.543 1.414 1.414 12.543-12.543 2.043 2.043v-5.5h-5.5zm.328 9.414l-1.414 1.414 3.129 3.129-2.043 2.043h5.5v-5.5l-2.043 2.043-3.129-3.129z"/>
    </g>
</svg>
