<svg xmlns="http://www.w3.org/2000/svg" width="24" height="696" viewBox="0 0 24 696">
    <g id="forums">
        <path fill="none" d="M24 216h-24v-24h24z"/>
        <path d="M17 204v-9c0-.552-.448-1-1-1h-13c-.552 0-1 .448-1 1v14l4-4h10c.552 0 1-.448 1-1zm-10 2v3c0 .552.448 1 1 1h10l4 4v-14c0-.552-.448-1-1-1h-3v7h-11z"/>
    </g>
    <g id="comment">
        <path d="M21.99 124c0-1.104-.887-2-1.99-2h-16c-1.104 0-2 .896-2 2v12c0 1.104.896 2 2 2h14l4 4-.01-18zm-3.99 10h-12v-2h12v2zm0-3h-12v-2h12v2zm0-3h-12v-2h12v2z"/>
        <path fill="none" d="M24 144h-24v-24h24z"/>
    </g>
    <g id="chat">
        <path d="M20 98h-16c-1.104 0-1.99.896-1.99 2l-.01 18 4-4h14c1.104 0 2-.896 2-2v-12c0-1.104-.896-2-2-2zm-14 7h12v2h-12v-2zm8 5h-8v-2h8v2zm4-6h-12v-2h12v2z"/>
        <path fill="none" d="M24 120h-24v-24h24z"/>
    </g>
    <g id="gmail">
        <path fill="none" d="M24 240h-24v-24h24z"/>
        <path d="M20 220h-16c-1.104 0-1.99.896-1.99 2l-.01 12c0 1.104.896 2 2 2h16c1.104 0 2-.896 2-2v-12c0-1.104-.896-2-2-2zm0 14h-2v-8.75l-6 3.75-6-3.75v8.75h-2v-12h1.2l6.8 4.25 6.8-4.25h1.2v12z"/>
    </g>
    <g id="email">
        <path d="M20 148h-16c-1.104 0-1.99.896-1.99 2l-.01 12c0 1.104.896 2 2 2h16c1.104 0 2-.896 2-2v-12c0-1.104-.896-2-2-2zm0 4l-8 5-8-5v-2l8 5 8-5v2z"/>
        <path fill="none" d="M24 168h-24v-24h24z"/>
    </g>
    <g id="call">
        <path fill="none" d="M24 24h-24v-24h24z"/>
        <path d="M6.624 10.795c1.441 2.831 3.756 5.146 6.588 6.585l2.201-2.203c.274-.274.669-.354 1.015-.245 1.124.367 2.325.568 3.572.568.553 0 1 .447 1 1v3.5c0 .553-.447 1-1 1-9.389 0-17-7.611-17-17 0-.553.448-1 1-1h3.5c.553 0 1 .447 1 1 0 1.247.201 2.448.568 3.572.111.346.03.739-.245 1.015l-2.199 2.208z"/>
    </g>
    <g id="callEnd">
        <path fill="none" d="M24 48h-24v-24h24z"/>
        <path d="M12 33c-1.604 0-3.15.252-4.6.718v3.105c0 .395-.229.734-.561.896-.977.491-1.873 1.116-2.665 1.854-.18.175-.426.284-.698.284-.275 0-.525-.112-.707-.293l-2.479-2.478c-.179-.18-.29-.43-.29-.707 0-.277.111-.527.294-.708 3.048-2.895 7.169-4.671 11.706-4.671s8.658 1.776 11.706 4.671c.183.182.294.432.294.708 0 .276-.111.526-.292.707l-2.478 2.479c-.183.181-.433.293-.709.293-.271 0-.519-.108-.697-.284-.792-.736-1.689-1.361-2.665-1.854-.332-.163-.56-.503-.56-.896l-.002-3.104c-1.447-.468-2.993-.72-4.597-.72z"/>
    </g>
    <g id="textsms">
        <path d="M20 410h-16c-1.104 0-1.99.896-1.99 2l-.01 18 4-4h14c1.104 0 2-.896 2-2v-12c0-1.104-.896-2-2-2zm-11 9h-2v-2h2v2zm4 0h-2v-2h2v2zm4 0h-2v-2h2v2z"/>
        <path fill="none" d="M24 432h-24v-24h24z"/>
    </g>
    <g id="message">
        <path d="M20 314h-16c-1.104 0-1.99.896-1.99 2l-.01 18 4-4h14c1.104 0 2-.896 2-2v-12c0-1.104-.896-2-2-2zm-2 12h-12v-2h12v2zm0-3h-12v-2h12v2zm0-3h-12v-2h12v2z"/>
        <path fill="none" d="M24 336h-24v-24h24z"/>
    </g>
    <g id="hangout">
        <path d="M11.5 242c-4.694 0-8.5 3.806-8.5 8.5s3.806 8.5 8.5 8.5h.5v3.5c4.859-2.344 8-7.5 8-12 0-4.694-3.807-8.5-8.5-8.5zm-.5 9l-1 2h-1.5l1-2h-1.5v-3h3v3zm4 0l-1 2h-1.5l1-2h-1.5v-3h3v3z"/>
        <path fill="none" d="M24 264h-24v-24h24z"/>
    </g>
    <g id="phone">
        <path fill="none" d="M24 384h-24v-24h24z"/>
        <path d="M6.624 370.795c1.441 2.831 3.756 5.146 6.588 6.585l2.201-2.203c.274-.273.669-.354 1.015-.245 1.124.367 2.325.568 3.572.568.553 0 1 .447 1 1v3.5c0 .553-.447 1-1 1-9.389 0-17-7.611-17-17 0-.553.448-1 1-1h3.5c.553 0 1 .447 1 1 0 1.247.201 2.448.568 3.572.112.346.03.738-.245 1.015l-2.199 2.208z"/>
    </g>
    <g id="messenger">
        <path d="M20 338h-16c-1.104 0-2 .896-2 2v18l4-4h14c1.104 0 2-.896 2-2v-12c0-1.104-.896-2-2-2z"/>
        <path fill="none" d="M24 360h-24v-24h24z"/>
    </g>
    <g id="hangoutVideo">
        <path fill="none" d="M24 288h-24v-24h24z"/>
        <path d="M20 268h-16c-1.104 0-2 .896-2 2v12c0 1.104.896 2 2 2h16c1.104 0 2-.896 2-2v-12c0-1.104-.896-2-2-2zm-2 12l-4-3.2v3.2h-8v-8h8v3.2l4-3.2v8z"/>
    </g>
    <g id="hangoutVideoOff">
        <path fill="none" d="M24 312h-24v-24h24z"/>
        <path d="M20 292h-12.182l4 4h2.182v2.182l.566.565 3.434-2.747v6.182l3.982 3.983.018-.165v-12c0-1.104-.896-2-2-2zm-17.727-3l-1.273 1.273 2.003 2.003c-.597.346-1.003.985-1.003 1.724v12c0 1.104.896 2 2 2h14.727l2 2 1.273-1.271-19.727-19.729zm3.727 7h.727l7.273 7.273v.727h-8v-8z"/>
    </g>
    <g id="ringVolume">
        <path fill="none" d="M24 408h-24v-24h24z"/>
        <path d="M23.706 400.671c-3.048-2.895-7.17-4.671-11.706-4.671s-8.658 1.776-11.706 4.671c-.182.183-.294.433-.294.708 0 .276.112.526.293.707l2.477 2.479c.181.181.431.293.708.293.271 0 .518-.108.698-.284.792-.736 1.689-1.361 2.665-1.854.332-.163.56-.503.56-.896l.001-3.104c1.448-.468 2.994-.72 4.598-.72 1.604 0 3.15.252 4.6.718v3.104c0 .395.229.733.562.896.977.491 1.873 1.116 2.665 1.854.18.175.426.284.697.284.275 0 .525-.112.707-.293l2.479-2.479c.182-.18.292-.43.292-.707s-.113-.523-.296-.706zm-2.547-10.416l-1.415-1.414-3.559 3.56 1.416 1.414c.001-.003 3.448-3.523 3.558-3.56zm-8.159-4.255h-2v5h2v-5zm-6.601 7.812l1.415-1.413-3.558-3.56-1.415 1.414c.11.039 3.558 3.559 3.558 3.559z"/>
    </g>
    <g id="callSplit">
        <path fill="none" d="M0 72v24h24v-24z"/>
        <path d="M15.5 75.5l-4.5 4.5h3v9l-6-6 2-2h-6v6l2-2 8 8h3v-13h3z"/>
    </g>
    <g id="callMerge">
        <path fill="none" d="M24 72h-24v-24h24z"/>
        <path d="M13 62.003v-7.013h3l-4.5-4.49-4.5 4.49h3v7.013l-5 5.017 1.98 1.98 4.52-4.505 4.52 4.505 1.98-1.98z"/>
    </g>
    <g id="dialpad">
        <path fill="none" d="M24 192h-24v-24h24z"/>
        <path d="M23.706 174.671c-3.048-2.895-7.17-4.671-11.706-4.671s-8.658 1.776-11.706 4.671c-.182.182-.294.432-.294.708 0 .276.112.526.293.707l2.477 2.479c.181.181.431.293.708.293.271 0 .518-.108.698-.284.792-.736 1.688-1.361 2.664-1.853.332-.163.56-.504.56-.897l.001-3.104c1.449-.468 2.995-.72 4.599-.72s3.15.252 4.6.718v3.105c0 .395.229.734.562.896.977.491 1.873 1.116 2.665 1.854.18.175.426.284.697.284.275 0 .525-.112.707-.293l2.479-2.479c.182-.181.292-.431.292-.708-.001-.276-.113-.524-.296-.706zm-11.706 3.329c-3.313 0-6 2.687-6 6s2.687 6 6 6c3.312 0 6-2.687 6-6s-2.688-6-6-6zm0 9.5c-1.933 0-3.5-1.567-3.5-3.5s1.567-3.5 3.5-3.5c1.934 0 3.5 1.567 3.5 3.5s-1.566 3.5-3.5 3.5z"/>
    </g>
</svg>
