<svg xmlns="http://www.w3.org/2000/svg" width="24" height="696" viewBox="0 0 24 696">
    <g id="remove">
        <path d="M12 338c-5.523 0-10 4.477-10 10s4.477 10 10 10 10-4.477 10-10-4.477-10-10-10zm5 11h-10v-2h10v2z"/>
        <path fill="none" d="M24 360h-24v-24h24z"/>
    </g>
    <g id="contentCopy">
        <path fill="none" d="M24 144h-24v-24h24z"/>
        <path d="M17 144h2v-2h-2v2zm4-14v2h2c0-1.104-.896-2-2-2zm-12 6h2v-2h-2v2zm2 8v-2h-2c0 1.104.896 2 2 2zm2 0h2v-2h-2v2zm-4-12h2v-2c-1.104 0-2 .896-2 2zm12 8h2v-2h-2v2zm0-4h2v-2h-2v2zm0 8c1.104 0 2-.896 2-2h-2v2zm-4-22h-4.184c-.414-1.162-1.512-2-2.816-2s-2.403.838-2.816 2h-4.184c-1.104 0-2 .896-2 2v14c0 1.104.896 2 2 2h14c1.104 0 2-.896 2-2v-14c0-1.104-.896-2-2-2zm-7 0c.552 0 1 .447 1 1s-.448 1-1 1-1-.447-1-1 .448-1 1-1zm7 16h-14v-14h2v2h10v-2h2v14zm-4-6h2v-2h-2v2z"/>
    </g>
    <g id="contentCut">
        <path d="M19 147h-14c-1.104 0-2 .896-2 2v14c0 1.104.896 2 2 2h14v-2h-14v-14h14v-2zm0 8c1.104 0 2-.896 2-2s-.896-2-2-2-2 .896-2 2c0 .293.066.569.18.82l-1.18 1.18-3-3h-2l6.18 6.18c-.114.251-.18.527-.18.82 0 1.104.896 2 2 2s2-.896 2-2-.896-2-2-2c-.293 0-.568.066-.82.18l-1.18-1.18 1.18-1.18c.252.114.527.18.82.18zm0 3c.552 0 1 .447 1 1s-.448 1-1 1-1-.447-1-1 .448-1 1-1zm-3-1.75c-.139 0-.25-.111-.25-.25 0-.138.111-.25.25-.25s.25.112.25.25c0 .139-.111.25-.25.25zm3-4.25c.552 0 1 .447 1 1s-.448 1-1 1-1-.447-1-1 .448-1 1-1zm-4.5 4.5l-3.5 3.5h2l2.5-2.5-1-1z"/>
        <path fill="none" d="M24 168h-24v-24h24z"/>
    </g>
    <g id="contentPaste">
        <path d="M19 171h-4.184c-.414-1.162-1.512-2-2.816-2-1.304 0-2.403.838-2.816 2h-4.184c-1.104 0-2 .896-2 2v14c0 1.104.896 2 2 2h14c1.104 0 2-.896 2-2v-14c0-1.104-.896-2-2-2zm-7 0c.552 0 1 .447 1 1s-.448 1-1 1-1-.447-1-1 .448-1 1-1zm7 16h-14v-14h2v3h10v-3h2v14z"/>
        <path fill="none" d="M24 192h-24v-24h24z"/>
    </g>
    <g id="create">
        <path d="M3 209.25v3.75h3.75l11.064-11.064-3.75-3.75-11.064 11.064zm17.707-10.207c.391-.391.391-1.023 0-1.414l-2.336-2.336c-.391-.391-1.023-.391-1.414 0l-1.832 1.832 3.75 3.75 1.832-1.832z"/>
        <path fill="none" d="M24 216h-24v-24h24z"/>
    </g>
    <g id="gesture">
        <path d="M4.593 246.887c.699-.715 1.398-1.354 1.714-1.223.496.206-.01 1.038-.302 1.526-.251.418-2.862 3.886-2.862 6.312 0 1.281.478 2.34 1.345 2.98.75.556 1.737.728 2.638.46 1.069-.314 1.949-1.396 3.062-2.768 1.211-1.49 2.832-3.438 4.078-3.438 1.631 0 1.647 1.008 1.762 1.795-3.779.643-5.377 3.666-5.377 5.373 0 1.705 1.438 3.094 3.206 3.094 1.627 0 4.293-1.332 4.692-6.1h2.451v-2.5h-2.468c-.151-1.649-1.093-4.197-4.029-4.197-2.25 0-4.185 1.908-4.937 2.844-.58.728-2.057 2.479-2.286 2.723-.255.298-.676.84-1.113.84-.445 0-.716-.833-.364-1.925.352-1.095 1.4-2.861 1.851-3.517.784-1.14 1.296-1.924 1.296-3.279-.001-2.199-1.642-2.887-2.509-2.887-1.321 0-2.471 1.002-2.723 1.255-.355.358-.657.657-.873.927l1.748 1.705zm9.291 11.666c-.308 0-.735-.26-.735-.723 0-.598.727-2.202 2.875-2.764-.311 2.696-1.441 3.487-2.14 3.487z"/>
        <path fill="none" d="M24 264h-24v-24h24z"/>
    </g>
    <g id="backspace">
        <path fill="none" d="M0 48v24h24v-24z"/>
        <path d="M22 51.01l-14.935-.01c-.69 0-1.299.35-1.659.882l-5.406 8.113 5.407 8.113c.359.531.968.882 1.659.882l14.934.01c1.104 0 2-.896 2-2v-14c0-1.104-.896-1.99-2-1.99zm-3 12.576l-1.414 1.414-3.586-3.586-3.586 3.586-1.414-1.414 3.586-3.586-3.586-3.586 1.414-1.414 3.586 3.586 3.586-3.586 1.414 1.414-3.586 3.586 3.586 3.586z"/>
    </g>
    <g id="sort">
        <path d="M3 450h6v-2h-6v2zm0-12v2h18v-2h-18zm0 7h12v-2h-12v2z"/>
        <path fill="none" d="M24 456h-24v-24h24z"/>
    </g>
    <g id="keyboard">
        <path d="M20 269h-16c-1.104 0-1.99.896-1.99 2l-.01 10c0 1.104.896 2 2 2h16c1.104 0 2-.896 2-2v-10c0-1.104-.896-2-2-2zm-9 3h2v2h-2v-2zm0 3h2v2h-2v-2zm-3-3h2v2h-2v-2zm0 3h2v2h-2v-2zm-1 2h-2v-2h2v2zm0-3h-2v-2h2v2zm9 7h-8v-2h8v2zm0-4h-2v-2h2v2zm0-3h-2v-2h2v2zm3 3h-2v-2h2v2zm0-3h-2v-2h2v2z"/>
        <path fill="none" d="M24 288h-24v-24h24zM24 288h-24v-24h24z"/>
    </g>
    <g id="add">
        <path d="M19 13h-6v6h-2v-6h-6v-2h6v-6h2v6h6v2z"/>
        <path fill="none" d="M24 24h-24v-24h24z"/>
    </g>
    <g id="addBox">
        <path d="M19 27h-14c-1.105 0-2 .896-2 2v14c0 1.104.895 2 2 2h14c1.104 0 2-.896 2-2v-14c0-1.104-.896-2-2-2zm-2 10h-4v4h-2v-4h-4v-2h4v-4h2v4h4v2z"/>
        <path fill="none" d="M24 48h-24v-24h24z"/>
    </g>
    <g id="textFormat">
        <path d="M5 473v2h14v-2h-14zm4.5-4.2h5l.9 2.2h2.1l-4.75-11h-1.5l-4.75 11h2.1l.9-2.2zm2.5-6.821l1.871 5.021h-3.741l1.87-5.021z"/>
        <path fill="none" d="M24 480h-24v-24h24z"/>
    </g>
    <g id="filter">
        <path d="M10 234h4v-2h-4v2zm-7-12v2h18v-2h-18zm3 7h12v-2h-12v2z"/>
        <path fill="none" d="M24 240h-24v-24h24z"/>
    </g>
    <g id="link">
        <path fill="none" d="M0 312v24h24v-24z"/>
        <path fill="#231F20" d="M8 325h8v-2h-8v2zm-4.1-1c0-2.265 1.836-4.1 4.1-4.1h3v-1.9h-3c-3.313 0-6 2.686-6 6s2.687 6 6 6h3v-1.9h-3c-2.264 0-4.1-1.836-4.1-4.1zm12.1-6h-3v1.9h3c2.264 0 4.1 1.835 4.1 4.1 0 2.264-1.836 4.1-4.1 4.1h-3v1.9h3c3.314 0 6-2.686 6-6s-2.686-6-6-6z"/>
    </g>
    <g id="clear">
        <path d="M19 102.414l-1.414-1.414-5.586 5.586-5.586-5.586-1.414 1.414 5.586 5.586-5.586 5.586 1.414 1.414 5.586-5.586 5.586 5.586 1.414-1.414-5.586-5.586z"/>
        <path fill="none" d="M24 120h-24v-24h24z"/>
    </g>
    <g id="undo">
        <path fill="none" d="M0 1206v24h24v-24z"/>
        <path d="M12 1211v-3.5l-5 5 5 5v-4.5c3.312 0 6 2.687 6 6s-2.688 6-6 6c-3.313 0-6-2.687-6-6h-2c0 4.418 3.582 8 8 8s8-3.582 8-8-3.582-8-8-8z"/>
    </g>
    <g id="selectAll">
        <path fill="none" d="M24 432h-24v-24h24z"/>
        <path d="M3 425h2v-2h-2v2zm2 4v-2h-2c0 1.104.896 2 2 2zm6-8h-4v4h4v-4zm-8-4h2v-2h-2v2zm0-4h2v-2c-1.104 0-2 .896-2 2zm0 8h2v-2h-2v2zm8-6h-4v4h4v-4zm8-4v2h2c0-1.104-.896-2-2-2zm-6 0h-2v2h2v-2zm-4 0h-2v2h2v-2zm10 18c1.104 0 2-.896 2-2h-2v2zm0-4h2v-2h-2v2zm-12 4h2v-2h-2v2zm12-12h2v-2h-2v2zm-4-4h2v-2h-2v2zm4 8h2v-2h-2v2zm-4 8h2v-2h-2v2zm-4 0h2v-2h-2v2zm2-10h4v-4h-4v4zm0 6h4v-4h-4v4z"/>
    </g>
    <g id="keyboardHide">
        <path fill="none" d="M24 312h-24v-24h24z"/>
        <path d="M20 291h-16c-1.104 0-1.99.896-1.99 2l-.01 10c0 1.104.896 2 2 2h16c1.104 0 2-.896 2-2v-10c0-1.104-.896-2-2-2zm-9 3h2v2h-2v-2zm0 3h2v2h-2v-2zm-3-3h2v2h-2v-2zm0 3h2v2h-2v-2zm-1 2h-2v-2h2v2zm0-3h-2v-2h2v2zm9 7h-8v-2h8v2zm0-4h-2v-2h2v2zm0-3h-2v-2h2v2zm3 3h-2v-2h2v2zm0-3h-2v-2h2v2zm-7 15l4-4h-8l4 4z"/>
    </g>
    <g id="rotateRight">
        <path fill="none" d="M0 384v24h24v-24z"/>
        <path d="M15.55 389.55l-4.55-4.55v3.069c-3.945.492-7 3.852-7 7.931s3.055 7.438 7 7.931v-2.021c-2.837-.478-5-2.938-5-5.91s2.163-5.433 5-5.91v3.91l4.55-4.45zm4.38 5.45c-.172-1.388-.725-2.729-1.625-3.89l-1.416 1.415c.536.753.877 1.6 1.022 2.475h2.019zm-6.93 6.904v2.021c1.391-.172 2.738-.708 3.9-1.611l-1.438-1.438c-.749.537-1.589.881-2.462 1.028zm3.889-2.429l1.416 1.415c.9-1.161 1.453-2.501 1.625-3.89h-2.019c-.145.875-.486 1.722-1.022 2.475z"/>
    </g>
    <g id="rotateLeft">
        <path fill="none" d="M0 360v24h24v-24z"/>
        <path d="M7.111 368.525l-1.415-1.415c-.901 1.161-1.454 2.502-1.625 3.89h2.018c.145-.875.486-1.722 1.022-2.475zm-1.022 4.475h-2.018c.171 1.388.724 2.729 1.625 3.89l1.415-1.415c-.536-.753-.877-1.6-1.022-2.475zm1.011 5.315c1.161.902 2.511 1.438 3.9 1.611v-2.021c-.873-.147-1.713-.491-2.464-1.026l-1.436 1.436zm5.9-14.246v-3.069l-4.55 4.55 4.55 4.45v-3.91c2.837.478 5 2.938 5 5.91s-2.163 5.433-5 5.91v2.021c3.945-.492 7-3.852 7-7.931s-3.055-7.438-7-7.931z"/>
    </g>
    <g id="block">
        <path fill="none" d="M24 96h-24v-24h24z"/>
        <path d="M12 74c-5.523 0-10 4.477-10 10s4.477 10 10 10 10-4.477 10-10-4.477-10-10-10zm-8 10c0-4.418 3.582-8 8-8 1.85 0 3.546.633 4.9 1.686l-11.214 11.214c-1.053-1.355-1.686-3.051-1.686-4.9zm8 8c-1.849 0-3.545-.633-4.9-1.686l11.214-11.214c1.053 1.354 1.686 3.051 1.686 4.9 0 4.418-3.582 8-8 8z"/>
    </g>
</svg>
