<svg xmlns="http://www.w3.org/2000/svg" width="24" height="696" viewBox="0 0 24 696">
    <g id="driveChart">
        <path d="M19 195h-14c-1.104 0-2 .896-2 2v14c0 1.104.896 2 2 2h14c1.104 0 2-.896 2-2v-14c0-1.104-.896-2-2-2zm-10 14h-2v-4h2v4zm4 0h-2v-7h2v7zm4 0h-2v-10h2v10z"/>
        <path fill="none" d="M24 216h-24v-24h24z"/>
    </g>
    <g id="driveDocument">
        <path fill="none" d="M24 240h-24v-24h24z"/>
        <path d="M19 219h-14c-1.104 0-2 .896-2 2v14c0 1.104.896 2 2 2h14c1.104 0 2-.896 2-2v-14c0-1.104-.896-2-2-2zm-1.99 6h-10.01v-2h10.01v2zm0 4h-10.01v-2h10.01v2zm-3 4h-7.01v-2h7.01v2z"/>
    </g>
    <g id="driveDrawing">
        <path d="M19 243h-14c-1.104 0-2 .896-2 2v14c0 1.104.896 2 2 2h14c1.104 0 2-.896 2-2v-14c0-1.104-.896-2-2-2zm-13.1 6.5c0-1.988 1.611-3.6 3.6-3.6s3.6 1.61 3.6 3.6c0 .537-.125 1.042-.336 1.5h-1.764v1.764c-.458.211-.963.336-1.5.336-1.988 0-3.6-1.612-3.6-3.6zm12.1 8.5h-6v-6h6v6z"/>
        <path fill="none" d="M24 264h-24v-24h24z"/>
    </g>
    <g id="driveFile">
        <path d="M6 266c-1.104 0-1.99.896-1.99 2l-.01 16c0 1.104.886 2 1.99 2h12.01c1.104 0 2-.896 2-2v-12l-6-6h-8zm7 7v-5.5l5.5 5.5h-5.5z"/>
        <path fill="none" d="M24 288h-24v-24h24z"/>
    </g>
    <g id="driveForm">
        <path d="M19 291h-14c-1.104 0-2 .896-2 2v14c0 1.104.896 2 2 2h14c1.104 0 2-.896 2-2v-14c0-1.104-.896-2-2-2zm-10 14h-2v-2h2v2zm0-4h-2v-2h2v2zm0-4h-2v-2h2v2zm8 8h-7v-2h7v2zm0-4h-7v-2h7v2zm0-4h-7v-2h7v2z"/>
        <path fill="none" d="M24 312h-24v-24h24z"/>
    </g>
    <g id="driveFusiontable">
        <path fill="none" d="M24 336h-24v-24h24z"/>
        <path d="M19 315h-14c-1.104 0-2 .896-2 2v14c0 1.104.896 2 2 2h14c1.104 0 2-.896 2-2v-14c0-1.104-.896-2-2-2zm0 7.25l-6 6.75-4-4-4 4v-3l4-4 4 4 6-6.75v3z"/>
    </g>
    <g id="driveImage">
        <path fill="none" d="M24 360h-24v-24h24z"/>
        <path d="M19 339h-14c-1.104 0-2 .896-2 2v14c0 1.104.896 2 2 2h14c1.104 0 2-.896 2-2v-14c0-1.104-.896-2-2-2zm-14 15l3.5-5.5 2.5 3.925 3.5-5.425 4.5 7h-14z"/>
    </g>
    <g id="drivePresentation">
        <path d="M19 459h-14c-1.104 0-1.99.896-1.99 2v14c0 1.104.885 2 1.99 2h14c1.104 0 2-.896 2-2v-14c0-1.104-.896-2-2-2zm0 13h-14v-8h14v8z"/>
        <path fill="none" d="M24 480h-24v-24h24z"/>
    </g>
    <g id="driveScript">
        <path fill="none" d="M24 504h-24v-24h24z"/>
        <path d="M19 483h-14c-1.104 0-1.99.896-1.99 2l-.003 4h-.007v6h.003l-.003 4c0 1.104.896 2 2 2h14c1.104 0 2-.896 2-2v-14c0-1.104-.896-2-2-2zm-8 14v-3h-6v-4h6v-3l5 5-5 5z"/>
    </g>
    <g id="driveSite">
        <path d="M19 508h-14c-1.104 0-1.99.896-1.99 2l-.01 12c0 1.104.896 2 2 2h14c1.104 0 2-.896 2-2v-12c0-1.104-.896-2-2-2zm-5 14h-9v-4h9v4zm0-5h-9v-4h9v4zm5 5h-4v-9h4v9z"/>
        <path fill="none" d="M24 528h-24v-24h24z"/>
    </g>
    <g id="driveSpreadsheet">
        <path fill="none" d="M24 552h-24v-24h24z"/>
        <path d="M19 531h-14c-1.104 0-1.99.896-1.99 2l-.008 3h-.002v11c0 1.104.896 2 2 2h14c1.104 0 2-.896 2-2v-14c0-1.104-.896-2-2-2zm0 8h-8v8h-2v-8h-4v-2h4v-4h2v4h8v2z"/>
    </g>
    <g id="driveVideo">
        <path d="M18 556l2 4h-3l-2-4h-2l2 4h-3l-2-4h-2l2 4h-3l-2-4h-1c-1.104 0-1.99.896-1.99 2l-.01 12c0 1.104.896 2 2 2h16c1.104 0 2-.896 2-2v-14h-4z"/>
        <path fill="none" d="M24 576h-24v-24h24z"/>
    </g>
    <g id="driveMsExcel">
        <path fill="none" d="M24 384h-24v-24h24z"/>
        <path d="M19 363h-14c-1.104 0-2 .896-2 2v14c0 1.104.896 2 2 2h14c1.104 0 2-.896 2-2v-14c0-1.104-.896-2-2-2zm-2.8 14h-2l-2.2-3.8-2.2 3.8h-2l3.2-5-3.2-5h2l2.2 3.8 2.2-3.8h2l-3.2 5 3.2 5z"/>
    </g>
    <g id="driveMsPowerpoint">
        <path fill="none" d="M24 408h-24v-24h24z"/>
        <path d="M19 387h-14c-1.104 0-2 .896-2 2v14c0 1.104.896 2 2 2h14c1.104 0 2-.896 2-2v-14c0-1.104-.896-2-2-2zm-9.2 10.4v3.6h-1.8v-10h4.3c1.528 0 2.15.295 2.8.887.65.592.9 1.373.9 2.346 0 1.019-.262 1.801-.9 2.348-.639.546-1.3.82-2.8.82h-2.5zM9.8 396v-3.6h2.3c.662 0 1.171.249 1.5.6.328.352.5.718.5 1.245 0 .555-.181.948-.5 1.255-.318.308-.697.5-1.376.5h-2.424z"/>
    </g>
    <g id="drivePdf">
        <path fill="none" d="M24 456h-24v-24h24z"/>
        <path d="M11.346 440.593l.054-.039c.072-.322.121-.6.161-.822l.03-.163c.097-.542.083-.854-.048-1.041l-.049-.056-.058-.056-.046-.015-.043.022-.067.118c-.167.415-.161 1.149.013 2.012l.053.04zm-3.016 6.905c-.212.124-.376.232-.476.313-.716.649-1.16 1.306-1.27 1.641l.012.043.03.013.013-.002c.454-.157 1.043-.812 1.75-1.949l-.006-.053-.053-.006zm9.184-1.454c-.111-.107-.521-.355-1.918-.355l-.209.001-.049.042.029.056c.738.32 1.447.512 1.902.512l.195-.014.034-.007.095-.048.006-.062-.011-.018-.074-.107zm1.486-11.044h-14c-1.104 0-2 .896-2 2v14c0 1.104.896 2 2 2h14c1.104 0 2-.896 2-2v-14c0-1.104-.896-2-2-2zm-1.093 11.75c-.162.194-.47.299-.899.299-.766 0-1.979-.229-2.984-.739-1.745.182-3.031.421-4.048.75l-.184.071c-1.243 2.122-2.161 3.069-2.974 3.069-.153 0-.301-.035-.439-.104l-.479-.313-.023-.052c-.079-.174-.093-.347-.053-.54.105-.529.654-1.365 1.882-2.118.19-.14.485-.303.89-.49.296-.521.616-1.127.952-1.804.512-1.025.83-2.044 1.087-2.925l-.004-.012c-.368-1.211-.59-1.938-.219-3.265.109-.387.417-.777.794-.777l.236.002c.233 0 .444.084.606.244.659.659.357 2.269.022 3.595l-.035.142c.394 1.128.959 2.035 1.596 2.558.255.202.545.399.862.584.456-.049.892-.074 1.298-.074 1.239 0 1.985.226 2.278.688.104.165.147.355.123.552-.008.251-.105.479-.285.659zm-6.474-3.813c-.232.747-.565 1.539-1.016 2.408-.197.378-.389.735-.572 1.065l.079-.03.109-.042v.001c1.269-.49 2.469-.77 3.341-.926-.151-.107-.293-.216-.418-.324-.591-.507-1.113-1.247-1.523-2.152z"/>
    </g>
    <g id="driveMsWord">
        <path fill="#fff" d="M16.2 415h1.7l-2.4 10h-1.5l-2-7.5-2 7.5h-1.5l-2.4-10h1.7l1.542 7.507 1.958-7.507h1.4l1.972 7.507 1.528-7.507z"/>
        <path d="M19 411h-14c-1.104 0-2 .896-2 2v14c0 1.104.896 2 2 2h14c1.104 0 2-.896 2-2v-14c0-1.104-.896-2-2-2zm-3.5 14h-1.5l-2-7.5-2 7.5h-1.5l-2.4-10h1.7l1.542 7.507 1.958-7.507h1.4l1.972 7.507 1.528-7.507h1.7l-2.4 10z"/>
        <path fill="none" d="M24 432h-24v-24h24z"/>
    </g>
    <g id="folder">
        <path d="M10 580h-6c-1.104 0-1.99.896-1.99 2l-.01 12c0 1.104.896 2 2 2h16c1.104 0 2-.896 2-2v-10c0-1.104-.896-2-2-2h-8l-2-2z"/>
        <path fill="none" d="M24 600h-24v-24h24z"/>
    </g>
    <g id="folderShared">
        <path d="M20 606h-8l-2-2h-6c-1.104 0-1.99.896-1.99 2l-.01 12c0 1.104.896 2 2 2h16c1.104 0 2-.896 2-2v-10c0-1.104-.896-2-2-2zm-5 3c1.104 0 2 .896 2 2s-.896 2-2 2-2-.896-2-2 .896-2 2-2zm4 8h-8v-1c0-1.333 2.667-2 4-2s4 .667 4 2v1z"/>
        <path fill="none" d="M24 624h-24v-24h24z"/>
    </g>
    <g id="fileDownload">
        <path fill="none" d="M0 144v24h24v-24z"/>
        <path d="M19 153h-4v-6h-6v6h-4l7 7 7-7zm-15 9v2h16v-2h-16z"/>
    </g>
    <g id="upload">
        <path fill="none" d="M24 144h-24v-24h24z"/>
        <path d="M19.355 130.036c-.681-3.441-3.714-6.036-7.355-6.036-2.892 0-5.397 1.639-6.648 4.037-3.009.323-5.352 2.868-5.352 5.963 0 3.313 2.687 6 6 6h13c2.762 0 5-2.238 5-5 0-2.64-2.053-4.779-4.645-4.964zm-5.355 3.964v4h-4v-4h-3l5-5 5 5h-3z"/>
    </g>
    <g id="cloud">
        <path fill="none" d="M24 48h-24v-24h24z"/>
        <path d="M19.355 34.036c-.681-3.441-3.714-6.036-7.355-6.036-2.892 0-5.397 1.639-6.648 4.037-3.009.323-5.352 2.868-5.352 5.963 0 3.313 2.687 6 6 6h13c2.762 0 5-2.238 5-5 0-2.64-2.053-4.779-4.645-4.964z"/>
    </g>
    <g id="cloudDone">
        <path fill="none" d="M24 72h-24v-24h24z"/>
        <path d="M19.355 58.036c-.681-3.441-3.714-6.036-7.355-6.036-2.892 0-5.397 1.639-6.648 4.037-3.009.323-5.352 2.868-5.352 5.963 0 3.313 2.687 6 6 6h13c2.762 0 5-2.238 5-5 0-2.64-2.053-4.779-4.645-4.964zm-9.355 6.964l-3.5-3.5 1.414-1.414 2.086 2.086 5.176-5.176 1.414 1.414-6.59 6.59z"/>
    </g>
    <g id="attachment">
        <path d="M7.5 18c-3.038 0-5.5-2.463-5.5-5.5s2.462-5.5 5.5-5.5h10.5c2.209 0 4 1.791 4 4s-1.791 4-4 4h-8.5c-1.38 0-2.5-1.119-2.5-2.5s1.12-2.5 2.5-2.5h7.5v1.5h-7.5c-.552 0-1 .447-1 1s.448 1 1 1h8.5c1.381 0 2.5-1.119 2.5-2.5s-1.119-2.5-2.5-2.5h-10.5c-2.209 0-4 1.791-4 4s1.791 4 4 4h9.5v1.5h-9.5z"/>
        <path fill="none" d="M24 24h-24v-24h24z"/>
    </g>
    <g id="fileUpload">
        <path fill="none" d="M0 168v24h24v-24z"/>
        <path d="M9 184h6v-6h4l-7-7-7 7h4zM4 186v2h16v-2z"/>
    </g>
    <g id="cloudQueue">
        <path fill="none" d="M24 120h-24v-24h24z"/>
        <path d="M19.355 106.036c-.681-3.441-3.714-6.036-7.355-6.036-2.892 0-5.397 1.639-6.648 4.037-3.009.323-5.352 2.868-5.352 5.963 0 3.313 2.687 6 6 6h13c2.762 0 5-2.238 5-5 0-2.64-2.053-4.779-4.645-4.964zm-.355 7.964h-13c-2.209 0-4-1.791-4-4s1.791-4 4-4h.712c.654-2.307 2.771-4 5.288-4 3.038 0 5.5 2.462 5.5 5.5v.5h1.5c1.657 0 3 1.343 3 3s-1.343 3-3 3z"/>
    </g>
    <g id="cloudOff">
        <path fill="none" d="M24 96h-24v-24h24z"/>
        <path d="M19.355 82.036c-.681-3.441-3.714-6.036-7.355-6.036-1.478 0-2.85.434-4.01 1.172l1.462 1.462c.762-.401 1.627-.634 2.548-.634 3.038 0 5.5 2.462 5.5 5.5v.5h1.5c1.657 0 3 1.343 3 3 0 1.133-.637 2.108-1.562 2.618l1.451 1.452c1.273-.906 2.111-2.387 2.111-4.07 0-2.64-2.053-4.779-4.645-4.964zm-16.355-4.763l2.75 2.739c-3.192.138-5.75 2.762-5.75 5.988 0 3.313 2.687 6 6 6h11.727l2 2 1.273-1.272-16.727-16.728-1.273 1.273zm4.727 4.727l8 8h-9.727c-2.209 0-4-1.791-4-4s1.791-4 4-4h1.727z"/>
    </g>
</svg>
