<svg xmlns="http://www.w3.org/2000/svg" width="24" height="696" viewBox="0 0 24 696">
    <g id="cameraAlt">
        <path d="M12 56.8c-1.768 0-3.2 1.434-3.2 3.2 0 1.768 1.433 3.2 3.2 3.2 1.768 0 3.2-1.434 3.2-3.2s-1.432-3.2-3.2-3.2zM9 50l-1.828 2h-3.172c-1.104 0-2 .896-2 2v12c0 1.104.896 2 2 2h16c1.104 0 2-.896 2-2v-12c0-1.104-.896-2-2-2h-3.172l-1.828-2h-6zm3 15c-2.761 0-5-2.238-5-5s2.239-5 5-5c2.762 0 5 2.238 5 5s-2.238 5-5 5z"/>
        <path fill="none" d="M24 72h-24v-24h24z"/>
    </g>
    <g id="pic">
        <path fill="none" d="M24 240h-24v-24h24z"/>
        <path d="M19 219h-14c-1.104 0-2 .896-2 2v14c0 1.104.896 2 2 2h14c1.104 0 2-.896 2-2v-14c0-1.104-.896-2-2-2zm-14 15l3.5-5.5 2.5 3.925 3.5-5.425 4.5 7h-14z"/>
    </g>
    <g id="camera">
        <path fill="none" d="M24 48h-24v-24h24z"/>
        <path d="M9.402 34.5l4.768-8.257c-.699-.155-1.424-.243-2.17-.243-2.398 0-4.597.846-6.32 2.253l3.664 6.347.058-.1zm12.139-1.5c-.919-2.924-3.148-5.259-5.995-6.341l-3.662 6.341h9.657zm.258 1h-7.49l.289.5 4.764 8.251c1.633-1.78 2.638-4.145 2.638-6.751 0-.685-.07-1.354-.201-2zm-13.263 2l-3.898-6.751c-1.633 1.78-2.638 4.145-2.638 6.751 0 .685.07 1.354.201 2h7.49l-1.155-2zm-6.077 3c.919 2.924 3.148 5.259 5.996 6.341l3.661-6.341h-9.657zm11.273 0l-3.901 6.757c.699.155 1.423.243 2.169.243 2.398 0 4.598-.846 6.32-2.253l-3.664-6.347-.924 1.6z"/>
    </g>
    <g id="autofix">
        <path fill="none" d="M24 24h-24v-24h24z"/>
        <path d="M7.5 5.6l2.5 1.4-1.4-2.5 1.4-2.5-2.5 1.4-2.5-1.4 1.4 2.5-1.4 2.5zM19.5 15.4l-2.5-1.4 1.4 2.5-1.4 2.5 2.5-1.4 2.5 1.4-1.4-2.5 1.4-2.5zM22 2l-2.5 1.4-2.5-1.4 1.4 2.5-1.4 2.5 2.5-1.4 2.5 1.4-1.4-2.5zM14.371 7.293c-.391-.391-1.023-.391-1.414 0l-11.664 11.664c-.391.391-.391 1.023 0 1.414l2.335 2.336c.391.391 1.024.391 1.415 0l11.664-11.664c.391-.391.391-1.023 0-1.414l-2.336-2.336zm-1.028 5.485l-2.121-2.121 2.436-2.437 2.121 2.122-2.436 2.436z"/>
    </g>
    <g id="tagfaces">
        <path fill="none" d="M24 360h-24v-24h24z"/>
        <path d="M17 347c.552 0 1-.448 1-1s-.448-1-1-1-1 .448-1 1 .448 1 1 1zm-2 5c1.861 0 3.354-1.278 3.8-3h-7.6c.446 1.722 1.937 3 3.8 3zm-2-5c.552 0 1-.448 1-1s-.448-1-1-1-1 .448-1 1 .448 1 1 1zm9-7.99l-14.371-.01c-.661 0-1.248.321-1.612.816l-6.017 8.189 6.017 8.179c.364.495.951.816 1.612.816h14.371c1.104 0 2-.896 2-2v-14c0-1.104-.896-1.99-2-1.99zm-18 9.99c-.552 0-1-.448-1-1s.448-1 1-1 1 .448 1 1-.448 1-1 1zm11 5c-3.316 0-6-2.686-6-6s2.684-6 6-6c3.314 0 6 2.686 6 6s-2.686 6-6 6z"/>
    </g>
    <g id="cameraRoll">
        <path fill="none" d="M24 96h-24v-24h24z"/>
        <path d="M14 77c0-1.104-.896-2-2-2h-1v-1c0-.552-.448-1-1-1h-4c-.552 0-1 .448-1 1v1h-1c-1.104 0-2 .896-2 2v15c0 1.104.896 2 2 2h8c1.104 0 2-.896 2-2h8v-15h-8zm-2 13h-2v-2h2v2zm0-9h-2v-2h2v2zm4 9h-2v-2h2v2zm0-9h-2v-2h2v2zm4 9h-2v-2h2v2zm0-9h-2v-2h2v2z"/>
    </g>
    <g id="photoLibrary">
        <path fill="none" d="M24 312h-24v-24h24z"/>
        <path d="M23 305v-14c0-1.104-.896-2-2-2h-14c-1.104 0-2 .896-2 2v14c0 1.104.896 2 2 2h14c1.104 0 2-.896 2-2zm-12.5-6.5l2.5 3.925 3.5-5.425 4.5 7h-14l3.5-5.5zm-9.5-5.5v16c0 1.104.896 2 2 2h16v-2h-16v-16h-2z"/>
    </g>
    <g id="photoAlbum">
        <path fill="none" d="M24 288h-24v-24h24z"/>
        <path d="M18 266h-6v7l-2.5-1.5-2.5 1.5v-7h-1c-1.104 0-2 .896-2 2v16c0 1.104.896 2 2 2h12c1.104 0 2-.896 2-2v-16c0-1.104-.896-2-2-2zm-12 17l3-4.5 2 3 3-5 4 6.5h-12z"/>
    </g>
    <g id="photo">
        <path fill="none" d="M24 264h-24v-24h24z"/>
        <path d="M19 243h-14c-1.104 0-2 .896-2 2v14c0 1.104.896 2 2 2h14c1.104 0 2-.896 2-2v-14c0-1.104-.896-2-2-2zm-14 15l3.5-5.5 2.5 3.925 3.5-5.425 4.5 7h-14z"/>
    </g>
    <g id="crop">
        <path fill="none" d="M24 120h-24v-24h24z"/>
        <path d="M17 111h2v-8c0-1.104-.896-2-2-2h-8v2h8v8zm-10 2v-16h-2v4h-4v2h4v10c0 1.104.896 2 2 2h10v4h2v-4h4v-2h-16z"/>
    </g>
    <g id="slideshow">
        <path fill="none" d="M24 336h-24v-24h24z"/>
        <path d="M10 320v8l5-4-5-4zm9-5h-14c-1.104 0-2 .896-2 2v14c0 1.104.896 2 2 2h14c1.104 0 2-.896 2-2v-14c0-1.104-.896-2-2-2zm0 16l-14 .001v-14.001h14v14z"/>
    </g>
    <g id="cropSquare">
        <path fill="none" d="M24 216h-24v-24h24z"/>
        <path d="M18 196h-12c-1.104 0-2 .896-2 2v12c0 1.104.896 2 2 2h12c1.104 0 2-.896 2-2v-12c0-1.104-.896-2-2-2zm0 14h-12v-12h12v12z"/>
    </g>
    <g id="cropLandscape">
        <path fill="none" d="M24 168h-24v-24h24z"/>
        <path d="M19 149h-14c-1.104 0-2 .896-2 2v10c0 1.104.896 2 2 2h14c1.104 0 2-.896 2-2v-10c0-1.104-.896-2-2-2zm0 12h-14v-10h14v10z"/>
    </g>
    <g id="cropPortrait">
        <path fill="none" d="M0 168v24h24v-24z"/>
        <path d="M17 171h-10c-1.104 0-2 .896-2 2v14c0 1.104.896 2 2 2h10c1.104 0 2-.896 2-2v-14c0-1.104-.896-2-2-2zm0 16h-10v-14h10v14z"/>
    </g>
    <g id="cropFree">
        <path fill="none" d="M24 144h-24v-24h24z"/>
        <path d="M3 125v4h2v-4h4v-2h-4c-1.104 0-2 .896-2 2zm2 10h-2v4c0 1.104.896 2 2 2h4v-2h-4v-4zm14 4h-4v2h4c1.104 0 2-.896 2-2v-4h-2v4zm0-16h-4v2h4v4h2v-4c0-1.104-.896-2-2-2z"/>
    </g>
</svg>
