<svg xmlns="http://www.w3.org/2000/svg" width="24" height="696" viewBox="0 0 24 696">
    <g id="directions">
        <path d="M21.707 35.294l-9.001-9-.002-.002c-.389-.391-1.023-.391-1.412.001l-9 9c-.39.391-.391 1.022 0 1.413l8.998 8.996.002.004c.392.39 1.023.391 1.414 0l9.001-8.999c.391-.39.391-1.022 0-1.413zm-7.707 3.206v-2.5h-4v3h-2v-4c0-.553.447-1 1-1h5v-2.5l3.5 3.5-3.5 3.5z"/>
        <path fill="none" d="M24 48h-24v-24h24z"/>
    </g>
    <g id="directionsBike">
        <path fill="none" d="M24 72h-24v-24h24z"/>
        <path d="M15 51.8c.992 0 1.8-.806 1.8-1.8s-.808-1.8-1.8-1.8c-.995 0-1.8.806-1.8 1.8s.805 1.8 1.8 1.8zm-7.499 4.495c-.309.308-.501.734-.501 1.205 0 .629.342 1.179.85 1.473l3.15 1.826v5.201h1.2l.985-6.339-2.435-1.811 2.32-2.331 1.469 2.481h4.461v-1.2l-3.202-.6-1.935-3.267c-.297-.499-.84-.834-1.463-.834-.47 0-.895.19-1.202.498l-3.697 3.698zm-2.501 3.705c-2.762 0-5 2.238-5 5 0 2.761 2.238 5 5 5s5-2.239 5-5c0-2.762-2.238-5-5-5zm0 8.5c-1.933 0-3.5-1.567-3.5-3.5s1.567-3.5 3.5-3.5 3.5 1.567 3.5 3.5-1.567 3.5-3.5 3.5zm14-8.5c-2.762 0-5 2.238-5 5 0 2.761 2.238 5 5 5s5-2.239 5-5c0-2.762-2.238-5-5-5zm0 8.5c-1.934 0-3.5-1.567-3.5-3.5s1.566-3.5 3.5-3.5 3.5 1.567 3.5 3.5-1.566 3.5-3.5 3.5z"/>
    </g>
    <g id="directionsBus">
        <path fill="none" d="M24 96h-24v-24h24z"/>
        <path d="M17 74h-10c-1.656 0-3 1.343-3 3v11c0 .885.391 1.672 1 2.221v1.779c0 .552.448 1 1 1h1c.553 0 1-.448 1-1v-1h8v1c0 .552.447 1 1 1h1c.552 0 1-.448 1-1v-1.778c.609-.549 1-1.337 1-2.222v-11c0-1.657-1.343-3-3-3zm-7 1h4v1h-4v-1zm-2.5 14c-.828 0-1.5-.672-1.5-1.5s.672-1.5 1.5-1.5c.829 0 1.5.672 1.5 1.5s-.671 1.5-1.5 1.5zm9 0c-.828 0-1.5-.672-1.5-1.5s.672-1.5 1.5-1.5c.829 0 1.5.672 1.5 1.5s-.671 1.5-1.5 1.5zm1.5-6h-12v-6h12v6z"/>
    </g>
    <g id="directionsCar">
        <path d="M18.919 102.011c-.203-.589-.762-1.011-1.419-1.011h-11c-.657 0-1.215.422-1.418 1.011l-2.082 5.989v8c0 .552.448 1 1 1h1c.553 0 1-.448 1-1v-1h12v1c0 .552.448 1 1 1h1c.553 0 1-.448 1-1v-8l-2.081-5.989zm-12.419 9.989c-.828 0-1.5-.672-1.5-1.5s.672-1.5 1.5-1.5c.829 0 1.5.672 1.5 1.5s-.671 1.5-1.5 1.5zm11 0c-.828 0-1.5-.672-1.5-1.5s.672-1.5 1.5-1.5c.829 0 1.5.672 1.5 1.5s-.671 1.5-1.5 1.5zm-12.5-5l1.4-4.5h11.2l1.4 4.5h-14z"/>
        <path fill="none" d="M24 120h-24v-24h24z"/>
    </g>
    <g id="directionsSubwayDark">
        <path fill="none" d="M24 144h-24v-24h24z"/>
        <path d="M17 122h-10c-1.656 0-3 1.343-3 3v10.5c0 1.933 1.569 3.5 3.5 3.5h-.207l-1.146 1.146c-.09.09-.147.215-.147.354v.5h12v-.5c0-.139-.057-.264-.146-.354l-1.147-1.146h-.207c1.936 0 3.5-1.567 3.5-3.5v-10.5c0-1.657-1.343-3-3-3zm-7 1h4v1h-4v-1zm-4 12.5c0-.829.672-1.5 1.5-1.5.829 0 1.5.671 1.5 1.5s-.671 1.5-1.5 1.5c-.828 0-1.5-.671-1.5-1.5zm10.5 1.5c-.828 0-1.5-.671-1.5-1.5s.672-1.5 1.5-1.5c.829 0 1.5.671 1.5 1.5s-.671 1.5-1.5 1.5zm1.5-6h-12v-6h12v6z"/>
    </g>
    <g id="directionsTrain">
        <path fill="none" d="M24 168h-24v-24h24z"/>
        <path d="M12 145c-4.418 0-8 3.582-8 8v7c0 1.657 1.344 3 3 3h.293l-1.146 1.146c-.09.09-.147.215-.147.354v.5h12v-.5c0-.139-.057-.264-.146-.354l-1.147-1.146h.293c1.657 0 3-1.343 3-3v-7c0-4.418-3.582-8-8-8zm2 2v1h-4v-1h4zm-2 14c-1.104 0-2-.896-2-2s.896-2 2-2c1.105 0 2 .896 2 2s-.895 2-2 2zm6-7h-12v-1.2c0-1.094.238-1.917.75-2.8h10.5c.512.883.75 1.706.75 2.8v1.2z"/>
    </g>
    <g id="hotel">
        <path fill="none" d="M24 264h-24v-24h24z"/>
        <path d="M17 244v-2h-10v2h-3v18h6v-2h4v2h6v-18h-3zm-6 13h-2v-2h2v2zm0-4h-2v-2h2v2zm0-4h-2v-2h2v2zm4 8h-2v-2h2v2zm0-4h-2v-2h2v2zm0-4h-2v-2h2v2z"/>
    </g>
    <g id="flights">
        <path d="M15 226.182"/>
        <path d="M22 227.5c0-.828-.671-1.5-1.5-1.5h-5.5l-5-8h-2l2.5 8h-5.5l-1.5-2h-1.5l1 3.5-1 3.5h1.5l1.5-2h5.5l-2.5 8h2l5-8h5.5c.829 0 1.5-.672 1.5-1.5z"/>
        <path fill="none" d="M24 240h-24v-24h24z"/>
    </g>
    <g id="directionsWalk">
        <path d="M14 171.8c.992 0 1.8-.806 1.8-1.798 0-.997-.809-1.802-1.8-1.802-.995 0-1.799.805-1.799 1.801-.001.993.804 1.799 1.799 1.799zm.5 18.2v-6.96l-2.189-3.986.734-2.868 1.073 1.814h4.882v-1.2l-3.623-.6-2-3.332c-.296-.499-.84-.833-1.462-.833-.171 0-.335.024-.491.072l-5.424 1.693v5.2h1.2l.6-3.667 2.121-.662-3.921 15.329h1.2l3.544-8.271 1.624 2.283.932 5.988h1.2z"/>
        <path fill="none" d="M24 192h-24v-24h24z"/>
        <path d="M11.916 180.568"/>
    </g>
    <g id="earth">
        <path d="M12.001 194c-5.523 0-10 4.477-10 10s4.477 10 10 10c5.522 0 10-4.477 10-10s-4.478-10-10-10zm0 18.2c-1.123 0-2.194-.229-3.168-.636-.624-1.482-.613-2.645 1.119-2.064 0 0 3.917 1.519 8.041.085-1.497 1.605-3.625 2.615-5.992 2.615zm7.097-4.102c-.939.371-2.111 1.002-3.957 1.002-1.884 0-3.531-.75-5.58-1.398-1.862-.591-2.551-1.5-3.841-1.5-.656 0-.984.659-1.167 1.216-.478-1.042-.752-2.196-.752-3.417 0-.805.121-1.579.337-2.313 1.262-1.588 3.193-2.562 5.957-.429 0 0 6.23 4.665 9.792 4.976-.188.658-.455 1.282-.789 1.863zm-6.702-8.539c-2.8-2.645-5.093-1.906-6.082-1.458.746-.72 1.626-1.299 2.603-1.695 2.783-.104 5.915.436 7.647 2.911 0 0 2.424 4.181 3.291 2.34.222.743.346 1.528.346 2.345 0 .298-.02.592-.049.882-2.035-.237-4.826-2.558-7.756-5.325z"/>
        <path fill="none" d="M24 216h-24v-24h24z"/>
    </g>
    <g id="beenhere">
        <path fill="none" d="M24 24h-24v-24h24z"/>
        <path d="M19 1h-14c-1.104 0-1.99.896-1.99 2l-.01 12.935c0 .69.35 1.3.882 1.659l8.113 5.406 8.112-5.407c.533-.358.883-.968.883-1.659l.01-12.934c0-1.104-.896-2-2-2zm-9 15l-5-5 1.414-1.414 3.586 3.586 7.586-7.586 1.414 1.414-9 9z"/>
    </g>
    <g id="map">
        <path d="M20.5 315l-.156.025-5.344 2.075-6-2.1-5.637 1.897c-.21.07-.363.252-.363.48v15.123c0 .276.224.5.5.5l.157-.025 5.343-2.075 6 2.1 5.639-1.897c.209-.073.361-.252.361-.481v-15.122c0-.277-.223-.5-.5-.5zm-5.5 16l-6-2.107v-11.893l6 2.107v11.893z"/>
        <path fill="none" d="M24 336h-24v-24h24z"/>
    </g>
    <g id="satellite">
        <path d="M12.001 366c-1.144 0-2.21.326-3.119.881l1.332 1.332c.543-.259 1.144-.414 1.786-.414 2.318 0 4.201 1.882 4.2 4.201.001.642-.156 1.242-.413 1.787l1.333 1.332c.554-.91.88-1.976.88-3.119 0-3.313-2.688-6.001-5.999-6zm-.001-2.201c4.527.001 8.201 3.672 8.201 8.201 0 1.754-.557 3.375-1.493 4.707l1.284 1.285c1.255-1.672 2.008-3.741 2.008-5.993 0-5.522-4.477-9.999-10-9.999-2.251 0-4.32.753-5.992 2.008l1.285 1.284c1.332-.937 2.954-1.493 4.707-1.493zm.635 10.248l.707-.706-.016-.015c.345-.344.574-.801.574-1.326 0-1.049-.853-1.9-1.899-1.9-.525-.001-.984.229-1.327.574l-.015-.016-.708.707-5.692-5.691c-1.409 1.724-2.258 3.926-2.258 6.326 0 5.523 4.479 10 10 10 2.401 0 4.604-.848 6.327-2.26l-5.693-5.693z"/>
        <path fill="none" d="M24 384h-24v-24h24z"/>
    </g>
    <g id="traffic">
        <path d="M20 394h-3v-1.142c1.723-.445 3-1.996 3-3.858h-3v-1c0-.552-.447-1-1-1h-8c-.552 0-1 .448-1 1v1h-3c0 1.862 1.278 3.413 3 3.858v1.142h-3c0 1.862 1.278 3.413 3 3.858v1.142h-3c0 1.862 1.278 3.413 3 3.858v1.142c0 .552.448 1 1 1h8c.553 0 1-.448 1-1v-1.142c1.723-.446 3-1.997 3-3.858h-3v-1.142c1.723-.445 3-1.996 3-3.858zm-7.999 9c-1.105 0-2-.895-2-2s.895-2 2-2c1.104 0 2 .895 2 2s-.896 2-2 2zm0-5c-1.105 0-2-.895-2-2s.895-2 2-2c1.104 0 2 .895 2 2s-.896 2-2 2zm0-5c-1.105 0-2-.895-2-2s.895-2 2-2c1.104 0 2 .895 2 2s-.896 2-2 2z"/>
        <path fill="none" d="M24 408h-24v-24h24z"/>
    </g>
    <g id="location">
        <path d="M3 300h9v9h1l8-18-18 8z"/>
        <path fill="none" d="M24 312h-24v-24h24z"/>
    </g>
    <g id="place">
        <path d="M12 338c-3.865 0-7 3.134-7 7 0 5.25 7 13 7 13s7-7.75 7-13c0-3.866-3.135-7-7-7zm0 9.5c-1.38 0-2.5-1.119-2.5-2.5s1.12-2.5 2.5-2.5c1.381 0 2.5 1.119 2.5 2.5s-1.119 2.5-2.5 2.5z"/>
        <path fill="none" d="M24 360h-24v-24h24z"/>
    </g>
    <g id="local">
        <path d="M19 266h-14c-1.105 0-2 .896-2 2v14c0 1.104.895 2 2 2h4l3 3 3-3h4c1.104 0 2-.896 2-2v-14c0-1.104-.896-2-2-2zm-7 3.3c1.491 0 2.7 1.208 2.7 2.7s-1.209 2.7-2.7 2.7-2.7-1.208-2.7-2.7c0-1.491 1.209-2.7 2.7-2.7zm6 10.7h-12v-.9c0-2 4-3.1 6-3.1s6 1.099 6 3.1v.9z"/>
        <path fill="none" d="M24 288h-24v-24h24z"/>
    </g>
</svg>
