<svg xmlns="http://www.w3.org/2000/svg" width="24" height="480" viewBox="0 0 24 480">
    <g id="arrowBack">
        <path fill="none" d="M0 24v24h24v-24z"/>
        <path d="M20 35h-12.172l5.586-5.586-1.414-1.414-8 8 8 8 1.414-1.414-5.586-5.586h12.172v-2z"/>
    </g>
    <g id="arrowForward">
        <path fill="none" d="M0 48v24h24v-24z"/>
        <path d="M12 52l-1.414 1.414 5.586 5.586h-12.172v2h12.172l-5.586 5.586 1.414 1.414 8-8z"/>
    </g>
    <g id="arrowDropUp">
        <path d="M7 110l5-5 5 5z"/>
        <path fill="none" d="M24 120h-24v-24h24z"/>
    </g>
    <g id="arrowDropDown">
        <path d="M7 82l5 5 5-5z"/>
        <path fill="none" d="M24 96h-24v-24h24z"/>
    </g>
    <g id="cancel">
        <path d="M12 122c-5.527 0-10 4.474-10 10s4.473 10 10 10c5.525 0 10-4.474 10-10s-4.475-10-10-10zm5 13.586l-1.414 1.414-3.586-3.586-3.586 3.586-1.414-1.414 3.586-3.586-3.586-3.586 1.414-1.414 3.586 3.586 3.586-3.586 1.414 1.414-3.586 3.586 3.586 3.586z"/>
        <path fill="none" d="M24 144h-24v-24h24z"/>
    </g>
    <g id="chevronLeft">
        <path d="M15.414 151.414l-1.414-1.414-6 6 6 6 1.414-1.414-4.586-4.586z"/>
        <path fill="none" d="M24 168h-24v-24h24z"/>
    </g>
    <g id="chevronRight">
        <path d="M10 174l-1.414 1.414 4.586 4.586-4.586 4.586 1.414 1.414 6-6z"/>
        <path fill="none" d="M0 168v24h24v-24z"/>
    </g>
    <g id="apps">
        <path d="M4 8h4v-4h-4zM4 20h4v-4h-4zM4 14h4v-4h-4zM10 14h4v-4h-4zM10 20h4v-4h-4zM10 8h4v-4h-4zM16 14h4v-4h-4zM16 4v4h4v-4zM16 20h4v-4h-4z"/>
        <path fill="none" d="M24 24h-24v-24h24z"/>
    </g>
    <g id="check">
        <path fill="none" d="M24 216h-24v-24h24z"/>
        <path d="M9 208.172l-4.586-4.586-1.414 1.414 6 6 12-12-1.414-1.414z"/>
    </g>
    <g id="unfoldMore">
        <path fill="none" d="M0 456v24h24v-24z"/>
        <path d="M12 461.828l3.172 3.172 1.414-1.414-4.586-4.586-4.586 4.586 1.414 1.414 3.172-3.172zm0 12.344l-3.172-3.172-1.414 1.414 4.586 4.586 4.586-4.586-1.414-1.414-3.172 3.172z"/>
    </g>
    <g id="fullscreen">
        <path fill="none" d="M0 288v24h24v-24z"/>
        <path d="M14 293v2h3v3h2v-5zM5 298h2v-3h3v-2h-5zM17 305h-3v2h5v-5h-2zM7 302h-2v5h5v-2h-3z"/>
    </g>
    <g id="fullscreenExit">
        <path fill="none" d="M0 312v24h24v-24z"/>
        <path d="M16 320v-3h-2v5h5v-2zM8 320h-3v2h5v-5h-2zM14 331h2v-3h3v-2h-5zM5 328h3v3h2v-5h-5z"/>
    </g>
    <g id="unfoldLess">
        <path fill="none" d="M0 432v24h24v-24z"/>
        <path d="M7.414 450.586l1.414 1.414 3.172-3.172 3.172 3.172 1.414-1.414-4.586-4.586-4.586 4.586zm9.172-13.172l-1.414-1.414-3.172 3.172-3.172-3.172-1.414 1.414 4.586 4.586 4.586-4.586z"/>
    </g>
    <g id="menu">
        <path fill="none" d="M24 360h-24v-24h24z"/>
        <path d="M3 354h18v-2h-18v2zm0-5h18v-2h-18v2zm0-7v2h18v-2h-18z"/>
    </g>
    <g id="expandMore">
        <path d="M16.586 248.586l-4.586 4.586-4.586-4.586-1.414 1.414 6 6 6-6z"/>
        <path fill="none" d="M0 240v24h24v-24z"/>
    </g>
    <g id="moreHoriz">
        <path fill="none" d="M24 384h-24v-24h24z"/>
        <path d="M6 370c-1.104 0-2 .896-2 2s.896 2 2 2 2-.896 2-2-.896-2-2-2zm12 0c-1.104 0-2 .896-2 2s.896 2 2 2 2-.896 2-2-.896-2-2-2zm-6 0c-1.104 0-2 .896-2 2s.896 2 2 2 2-.896 2-2-.896-2-2-2z"/>
    </g>
    <g id="moreVert">
        <path fill="none" d="M24 408h-24v-24h24z"/>
        <path d="M12 392c1.104 0 2-.896 2-2s-.896-2-2-2-2 .896-2 2 .896 2 2 2zm0 2c-1.104 0-2 .896-2 2s.896 2 2 2 2-.896 2-2-.896-2-2-2zm0 6c-1.104 0-2 .896-2 2s.896 2 2 2 2-.896 2-2-.896-2-2-2z"/>
    </g>
    <g id="expandLess">
        <path d="M12 272l-6 6 1.414 1.414 4.586-4.586 4.586 4.586 1.414-1.414z"/>
        <path fill="none" d="M0 264v24h24v-24z"/>
    </g>
    <g id="refresh">
        <path d="M17.648 414.351c-1.445-1.45-3.438-2.351-5.648-2.351-4.417 0-7.99 3.582-7.99 8s3.572 8 7.99 8c3.727 0 6.843-2.552 7.732-6h-2.084c-.823 2.33-3.037 4-5.648 4-3.314 0-6-2.686-6-6s2.686-6 6-6c1.657 0 3.141.688 4.225 1.775l-3.225 3.225h7v-7l-2.352 2.351z"/>
        <path fill="none" d="M24 432h-24v-24h24z"/>
    </g>
    <g id="close">
        <path d="M19 222.414l-1.414-1.414-5.586 5.586-5.586-5.586-1.414 1.414 5.586 5.586-5.586 5.586 1.414 1.414 5.586-5.586 5.586 5.586 1.414-1.414-5.586-5.586z"/>
        <path fill="none" d="M24 240h-24v-24h24z"/>
    </g>
</svg>
