<svg xmlns="http://www.w3.org/2000/svg" width="24" height="816" viewBox="0 0 24 816">
    <g id="postPinterest">
        <path d="M20 602h-16c-1.104 0-1.99.896-1.99 2l-.01 16c0 1.104.896 2 2 2h16c1.104 0 2-.896 2-2v-16c0-1.104-.896-2-2-2zm-7 14.2c-.802 0-1.568-.339-2.116-.92l-.952 3.2-.067.206-.032-.012c-.197.326-.545.526-.933.526-.606 0-1.1-.493-1.1-1.101l.015-.146-.018-.007.054-.179 1.85-5.562s-.2-.613-.2-1.473c0-1.72.922-2.234 1.664-2.234s1.417.266 1.417 1.312c0 1.345-.889 2.031-.889 3.004 0 .739.603 1.342 1.343 1.342 2.334 0 3.165-1.76 3.165-3.407 0-2.178-1.885-3.95-4.2-3.95-2.316 0-4.2 1.772-4.2 3.95.001.674.188 1.344.542 1.936.094.155.143.332.143.516 0 .552-.449 1-1 1-.356 0-.689-.19-.867-.495-.536-.896-.819-1.919-.819-2.956 0-3.281 2.781-5.95 6.2-5.95s6.2 2.669 6.2 5.95c0 2.625-1.628 5.45-5.2 5.45z"/>
        <path fill="none" d="M24 624h-24v-24h24z"/>
    </g>
    <g id="socialTumblr">
        <path d="M20 626h-16c-1.104 0-1.99.896-1.99 2l-.01 16c0 1.104.896 2 2 2h16c1.104 0 2-.896 2-2v-16c0-1.104-.896-2-2-2zm-4 9h-3v3.9c0 .731.145 1.1 1.1 1.1h1.9v3s-1.027.101-2.1.101c-2.646 0-3.9-1.623-3.9-3.399v-4.7h-2v-2.8c2.408-.201 2.619-2.043 2.8-3.201h2.2v3h3v2.999z"/>
        <path fill="none" d="M24 648h-24v-24h24z"/>
    </g>
    <g id="postTwitter">
        <path d="M20 650h-16c-1.104 0-1.99.896-1.99 2l-.01 16c0 1.104.896 2 2 2h16c1.104 0 2-.896 2-2v-16c0-1.104-.896-2-2-2zm-2.292 7.33c-.063 4.619-3.017 7.783-7.425 7.981-1.818.083-3.137-.503-4.283-1.231 1.344.215 3.009-.322 3.902-1.086-1.318-.129-2.097-.799-2.464-1.877.38.065.781.049 1.144-.029-1.188-.397-2.037-1.133-2.083-2.672.334.152.682.295 1.143.322-.891-.506-1.546-2.355-.792-3.58 1.321 1.449 2.91 2.629 5.517 2.789-.654-2.797 3.058-4.315 4.607-2.437.656-.127 1.188-.375 1.702-.646-.21.649-.618 1.104-1.116 1.469.545-.074 1.029-.207 1.439-.411-.251.531-.811 1.008-1.291 1.408z"/>
        <path fill="none" d="M24 672h-24v-24h24z"/>
    </g>
    <g id="postBlogger">
        <path d="M20 482h-16c-1.104 0-1.99.896-1.99 2l-.01 16c0 1.104.896 2 2 2h16c1.104 0 2-.896 2-2v-16c0-1.104-.896-2-2-2zm-4 7v1c0 .553.447 1 1 1s1 .447 1 1v3c0 1.656-1.343 3-3 3h-6c-1.657 0-3-1.344-3-3v-7c0-1.656 1.343-3 3-3h4c1.657 0 3 1.344 3 3v1zm-6.05 1h2.6c.554 0 1-.447 1-1s-.446-1-1-1h-2.6c-.553 0-1 .447-1 1s.447 1 1 1zm4.05 3h-4.05c-.553 0-1 .447-1 1s.447 1 1 1h4.05c.553 0 1-.447 1-1s-.447-1-1-1z"/>
        <path fill="none" d="M24 504h-24v-24h24z"/>
    </g>
    <g id="postFacebook">
        <path d="M20 506h-16c-1.104 0-1.99.896-1.99 2l-.01 16c0 1.104.896 2 2 2h16c1.104 0 2-.896 2-2v-16c0-1.104-.896-2-2-2zm-1 2v3h-2c-.552 0-1 .447-1 1v2h3v3h-3v7h-3v-7h-2v-3h2v-2.5c0-1.934 1.566-3.5 3.5-3.5h2.5z"/>
        <path fill="none" d="M24 528h-24v-24h24z"/>
    </g>
    <g id="postInstagram">
        <path d="M20 554h-16c-1.104 0-1.99.896-1.99 2l-.01 16c0 1.104.896 2 2 2h16c1.104 0 2-.896 2-2v-16c0-1.104-.896-2-2-2zm-8 6c2.209 0 4 1.791 4 4s-1.791 4-4 4c-2.208 0-4-1.791-4-4s1.792-4 4-4zm-7.5 12c-.276 0-.5-.224-.5-.5v-8.5h2.09c-.055.326-.09.658-.09 1 0 3.313 2.687 6 6 6 3.312 0 6-2.687 6-6 0-.342-.035-.674-.09-1h2.09v8.5c0 .276-.225.5-.5.5h-15zm15.5-13.5c0 .276-.225.5-.5.5h-2c-.275 0-.5-.224-.5-.5v-2c0-.276.225-.5.5-.5h2c.275 0 .5.224.5.5v2z"/>
        <path fill="none" d="M24 576h-24v-24h24z"/>
    </g>
    <g id="postLinkedin">
        <path d="M20 578h-16c-1.104 0-1.99.896-1.99 2l-.01 16c0 1.104.896 2 2 2h16c1.104 0 2-.896 2-2v-16c0-1.104-.896-2-2-2zm-12 17h-3v-9h3v9zm-1.5-10.688c-1.001 0-1.812-.811-1.812-1.812s.811-1.812 1.812-1.812 1.812.81 1.812 1.812-.811 1.812-1.812 1.812zm12.5 10.688h-3v-5.3c0-.828-.672-1.5-1.5-1.5s-1.5.672-1.5 1.5v5.3h-3v-9h3v1.2c.518-.838 1.586-1.4 2.5-1.4 1.934 0 3.5 1.567 3.5 3.5v5.7z"/>
        <path fill="none" d="M24 600h-24v-24h24z"/>
    </g>
    <g id="postGplus">
        <path fill="none" d="M24 552h-24v-24h24z"/>
        <path d="M11.2 536.875c0-1.02-.629-3.019-2.083-3.019-.637 0-1.317.438-1.317 1.668 0 1.182.625 2.932 1.968 2.932.058 0 1.432-.018 1.432-1.581zm-.634 4.934l-.314-.009h-.022c-.26 0-1.153.051-1.818.273-.644.236-1.412.722-1.412 1.701 0 1.079 1.038 2.226 2.96 2.226 1.525 0 2.436-1.003 2.436-1.973 0-.771-.458-1.235-1.83-2.218zm9.434-11.809h-16c-1.104 0-1.99.896-1.99 2l-.01 16c0 1.104.896 2 2 2h16c1.104 0 2-.896 2-2v-16c0-1.104-.896-2-2-2zm-10.934 17.2c-2.796 0-4.066-1.562-4.066-3.013 0-.451.141-1.59 1.479-2.387.769-.471 1.85-.781 3.142-.906-.188-.25-.336-.547-.336-.99 0-.155.018-.31.054-.465h-.385c-1.974 0-3.154-1.547-3.154-3.042 0-1.732 1.287-3.597 4.113-3.597h4.214l-.341.342-.708.708-.059.059h-.715c.408.425.897 1.119.897 2.16 0 1.402-.738 2.093-1.56 2.73-.159.123-.425.381-.425.725 0 .297.244.494.394.617.134.109.295.222.469.343.812.566 1.921 1.344 1.921 2.878 0 1.77-1.289 3.838-4.934 3.838zm9.934-7.2h-2v2h-1v-2h-2v-1h2v-2h1v2h2v1z"/>
    </g>
    <g id="personAdd">
        <path fill="none" d="M24 456h-24v-24h24z"/>
        <path d="M15 444c2.208 0 4-1.793 4-4 0-2.208-1.792-4-4-4s-4 1.792-4 4c0 2.207 1.792 4 4 4zm-9-2v-3h-2v3h-3v2h3v3h2v-3h3v-2h-3zm9 4c-2.667 0-8 1.335-8 4v2h16v-2c0-2.665-5.333-4-8-4z"/>
    </g>
    <g id="share">
        <path d="M21 684l-7-7v4c-7 1-10 6-11 11 2.5-3.5 6-5.1 11-5.1v4.1l7-7z"/>
        <path fill="none" d="M0 672v24h24v-24z"/>
    </g>
    <g id="person">
        <path d="M12 420c2.208 0 4-1.793 4-4 0-2.208-1.792-4-4-4s-4 1.792-4 4c0 2.207 1.792 4 4 4zm0 2c-2.667 0-8 1.335-8 4v2h16v-2c0-2.665-5.333-4-8-4z"/>
        <path fill="none" d="M24 432h-24v-24h24z"/>
    </g>
    <g id="people">
        <path fill="none" d="M24 408h-24v-24h24z"/>
        <path d="M16 395c1.657 0 2.99-1.344 2.99-3s-1.333-3-2.99-3-3 1.344-3 3 1.343 3 3 3zm-8 0c1.657 0 2.99-1.344 2.99-3s-1.333-3-2.99-3-3 1.344-3 3 1.343 3 3 3zm0 2c-2.333 0-7 1.168-7 3.5v2.5h14v-2.5c0-2.332-4.667-3.5-7-3.5zm8 0c-.29 0-.617.018-.965.054 1.158.837 1.965 1.963 1.965 3.446v2.5h6v-2.5c0-2.332-4.667-3.5-7-3.5z"/>
    </g>
    <g id="poll">
        <path d="M19 723h-14c-1.104 0-2 .896-2 2v14c0 1.104.896 2 2 2h14c1.104 0 2-.896 2-2v-14c0-1.104-.896-2-2-2zm-10 14h-2v-7h2v7zm4 0h-2v-10h2v10zm4 0h-2v-4h2v4z"/>
        <path fill="none" d="M24 744h-24v-24h24z"/>
    </g>
    <g id="mood">
        <path fill="none" d="M24 216h-24v-24h24z"/>
        <path d="M12 194c-5.527 0-10 4.477-10 10s4.473 10 10 10c5.523 0 10-4.477 10-10s-4.477-10-10-10zm3.5 6c.829 0 1.5.672 1.5 1.5 0 .829-.671 1.5-1.5 1.5s-1.5-.671-1.5-1.5c0-.828.671-1.5 1.5-1.5zm-7 0c.829 0 1.5.672 1.5 1.5 0 .829-.671 1.5-1.5 1.5s-1.5-.671-1.5-1.5c0-.828.671-1.5 1.5-1.5zm3.5 10c-2.614 0-4.776-1.682-5.6-4.01h11.2c-.825 2.328-2.989 4.01-5.6 4.01z"/>
    </g>
    <g id="pages">
        <path fill="none" d="M24 360h-24v-24h24z"/>
        <path d="M3 341v6h5l-1-4 4 1v-5h-6c-1.104 0-2 .896-2 2zm5 8h-5v6c0 1.104.896 2 2 2h6v-4.75l-4 .75 1-4zm9 4l-4-.75v4.75h6c1.104 0 2-.896 2-2v-6h-4.75l.75 4zm2-14h-6v5l4-1-1 4h5v-6c0-1.104-.896-2-2-2z"/>
    </g>
    <g id="extendedCircles">
        <path d="M12 82c2.209 0 4-1.791 4-4s-1.791-4-4-4-4 1.791-4 4 1.791 4 4 4zm0-6c1.104 0 2 .896 2 2s-.896 2-2 2-2-.896-2-2 .896-2 2-2zm-6 9c-2.209 0-4 1.791-4 4s1.791 4 4 4 4-1.791 4-4-1.791-4-4-4zm0 6c-1.104 0-2-.896-2-2s.896-2 2-2 2 .896 2 2-.896 2-2 2zm6-7.9c-1.049 0-1.9.852-1.9 1.9s.851 1.9 1.9 1.9 1.9-.852 1.9-1.9-.851-1.9-1.9-1.9zm6 1.9c-2.209 0-4 1.791-4 4s1.791 4 4 4 4-1.791 4-4-1.791-4-4-4zm0 6c-1.104 0-2-.896-2-2s.896-2 2-2 2 .896 2 2-.896 2-2 2z"/>
        <path fill="none" d="M24 96h-24v-24h24z"/>
    </g>
    <g id="circles">
        <path fill="none" d="M24 48h-24v-24h24z"/>
        <path d="M16.658 38.983c-.82 2.338-3.04 4.017-5.658 4.017-3.313 0-6-2.687-6-6 0-2.618 1.679-4.838 4.017-5.658l-.017-.342c0-1.013.196-1.979.54-2.871-4.274.699-7.54 4.399-7.54 8.871 0 4.971 4.029 9 9 9 4.473 0 8.172-3.266 8.871-7.54-.892.344-1.857.54-2.871.54l-.342-.017zM17 25c-3.312 0-6 2.687-6 6s2.688 6 6 6 6-2.687 6-6-2.688-6-6-6zm0 9c-1.657 0-3-1.343-3-3s1.343-3 3-3 3 1.343 3 3-1.343 3-3 3z"/>
    </g>
    <g id="communities">
        <path fill="none" d="M24 120h-24v-24h24z"/>
        <path d="M9 108c-1.104 0-2 .896-2 2s.896 2 2 2 2-.896 2-2-.896-2-2-2zm5-3c0-1.104-.896-2-2-2s-2 .896-2 2 .896 2 2 2 2-.896 2-2zm-2-7c-5.523 0-10 4.477-10 10 0 5.522 4.477 10 10 10s10-4.478 10-10c0-5.523-4.477-10-10-10zm0 18c-4.418 0-8-3.582-8-8s3.582-8 8-8 8 3.582 8 8-3.582 8-8 8zm3-8c-1.104 0-2 .896-2 2s.896 2 2 2 2-.896 2-2-.896-2-2-2z"/>
    </g>
    <g id="circlesAdd">
        <path d="M12 50c-5.523 0-10 4.477-10 10 0 5.522 4.477 10 10 10s10-4.478 10-10c0-5.523-4.477-10-10-10zm0 18c-4.418 0-8-3.582-8-8s3.582-8 8-8 8 3.582 8 8-3.582 8-8 8z"/>
        <path fill="none" d="M0 48v24h24v-24z"/>
        <path d="M13 59v-3h-2v3h-3v2h3v3h2v-3h3v-2h-3z"/>
    </g>
    <g id="groupAdd">
        <path fill="none" d="M24 168h-24v-24h24z"/>
        <path d="M8 154h-3v-3h-2v3h-3v2h3v3h2v-3h3v-2zm10 1c1.657 0 2.99-1.344 2.99-3s-1.333-3-2.99-3c-.318 0-.626.051-.915.144.567.812.905 1.793.905 2.856s-.338 2.045-.905 2.856c.289.093.597.144.915.144zm-5 0c1.657 0 2.99-1.344 2.99-3s-1.333-3-2.99-3-3 1.344-3 3 1.343 3 3 3zm6.621 2.16c.829.726 1.379 1.658 1.379 2.84v2h3v-2c0-1.541-2.374-2.486-4.379-2.84zm-6.621-.16c-2 0-6 1.001-6 3v2h12v-2c0-1.999-4-3-6-3z"/>
    </g>
    <g id="partymode_1_">
        <path fill="none" d="M24 720h-24v-24h24z"/>
        <path d="M9 698l-1.828 2h-3.172c-1.104 0-2 .896-2 2v12c0 1.104.896 2 2 2h16c1.104 0 2-.896 2-2v-12c0-1.104-.896-2-2-2h-3.172l-1.828-2h-6zm3 15c-1.381 0-2.631-.56-3.536-1.464l-1.464 1.464v-4h4l-1.475 1.475c.633.634 1.508 1.025 2.475 1.025 1.583 0 2.904-1.057 3.337-2.5h1.562c-.463 2.282-2.48 4-4.899 4zm5-6h-4l1.475-1.475c-.634-.634-1.509-1.025-2.475-1.025-1.583 0-2.905 1.058-3.337 2.5h-1.562c.463-2.282 2.48-4 4.899-4 1.381 0 2.631.56 3.536 1.464l1.464-1.464v4z"/>
    </g>
    <g id="public">
        <path fill="none" d="M24 768h-24v-24h24z"/>
        <path d="M12 746c-5.523 0-10 4.477-10 10s4.477 10 10 10 10-4.477 10-10-4.477-10-10-10zm-1 17.931c-3.945-.492-7-3.852-7-7.931 0-.617.077-1.215.208-1.792l4.792 4.792v1c0 1.104.896 2 2 2v1.931zm6.896-2.537c-.257-.807-1.003-1.394-1.896-1.394h-1v-3c0-.552-.448-1-1-1h-6v-2h2c.552 0 1-.448 1-1v-2h2c1.104 0 2-.896 2-2v-.413c2.932 1.188 5 4.057 5 7.413 0 2.081-.801 3.971-2.104 5.394z"/>
    </g>
    <g id="school">
        <path fill="none" d="M24 792h-24v-24h24z"/>
        <path d="M5 781.182v4l7 3.818 7-3.818v-4l-7 3.818-7-3.818zm7-10.182l-11 6 11 6 9-4.909v6.909h2v-8l-11-6z"/>
    </g>
    <g id="whatshot">
        <path d="M13.991 794.002s.608 2.482.608 4.498c0 1.933-1.267 3.5-3.2 3.5s-3.399-1.567-3.399-3.5l.025-.338c-1.888 2.257-3.025 5.165-3.025 8.338 0 4.142 3.358 7.5 7.5 7.5 4.143 0 7.5-3.358 7.5-7.5 0-5.057-2.346-9.565-6.009-12.498zm-1.491 16.998c-1.67 0-3.023-1.317-3.023-2.941 0-1.521.98-2.591 2.637-2.926 1.658-.334 3.375-1.131 4.328-2.416.367 1.21.559 2.482.559 3.783-.001 2.481-2.021 4.5-4.501 4.5z"/>
        <path fill="none" d="M24 816h-24v-24h24z"/>
    </g>
    <g id="locationCity">
        <path d="M17 180v4h-2v-14h-6v10h-2v-4l-3-3-3 3v14h22v-16l-6 6zm-12 8h-2v-2h2v2zm0-8h-2v-2h2v2zm0 4h-2v-2h2v2zm8 4h-2v-2h2v2zm0-4h-2v-2h2v2zm0-4h-2v-2h2v2zm0-4h-2v-2h2v2zm8 12h-2v-2h2v2zm0-4h-2v-2h2v2z"/>
        <path fill="none" d="M24 192h-24v-24h24z"/>
    </g>
    <g id="cake">
        <path d="M11.5 5c.829 0 1.5-.671 1.5-1.5 0-.282-.078-.546-.213-.772l-1.287-2.228-1.287 2.228c-.135.226-.213.49-.213.772 0 .829.671 1.5 1.5 1.5zm7 4h-5.5v-3h-3v3h-5.5c-2.485 0-4.5 2.015-4.5 4.5 0 1.56.794 2.933 2 3.74v6.76h19v-6.76c1.206-.809 2-2.182 2-3.74 0-2.485-2.016-4.5-4.5-4.5zm0 7c-.689 0-1.314-.28-1.768-.732l-1.75-1.75-1.715 1.75c-.453.452-1.077.732-1.767.732s-1.315-.28-1.768-.732l-1.75-1.75-1.715 1.75c-.452.452-1.077.732-1.767.732-1.381 0-2.5-1.12-2.5-2.5s1.119-2.5 2.5-2.5h14c1.38 0 2.5 1.12 2.5 2.5s-1.12 2.5-2.5 2.5z"/>
        <path fill="none" d="M24 24h-24v-24h24z"/>
    </g>
    <g id="partymode" enable-background="new">
        <path fill="none" d="M24 384h-24v-24h24z"/>
        <path d="M9 362l-1.828 2h-3.172c-1.104 0-2 .896-2 2v12c0 1.104.896 2 2 2h16c1.104 0 2-.896 2-2v-12c0-1.104-.896-2-2-2h-3.172l-1.828-2h-6zm3 15c-1.381 0-2.631-.56-3.536-1.464l-1.464 1.464v-4h4l-1.475 1.475c.633.634 1.508 1.025 2.475 1.025 1.583 0 2.904-1.057 3.337-2.5h1.562c-.463 2.282-2.48 4-4.899 4zm5-6h-4l1.475-1.475c-.634-.634-1.509-1.025-2.475-1.025-1.583 0-2.905 1.058-3.337 2.5h-1.562c.463-2.282 2.48-4 4.899-4 1.381 0 2.631.56 3.536 1.464l1.464-1.464v4z"/>
    </g>
    <g id="notifications">
        <path fill="none" d="M24 240h-24v-24h24z"/>
        <path d="M11.5 238c1.104 0 2-.896 2-2h-4c0 1.104.896 2 2 2zm6.5-6.5v-5c0-3.073-2.134-5.641-5-6.319v-.681c0-.829-.671-1.5-1.5-1.5s-1.5.671-1.5 1.5v.681c-2.866.679-5 3.246-5 6.319v5c0 1.104-.896 2-2 2v1.5h17v-1.5c-1.104 0-2-.896-2-2z"/>
    </g>
    <g id="notificationsNone">
        <path fill="none" d="M24 264h-24v-24h24z"/>
        <path d="M18 255.5v-5c0-3.073-2.134-5.641-5-6.319v-.681c0-.829-.671-1.5-1.5-1.5s-1.5.671-1.5 1.5v.681c-2.866.679-5 3.246-5 6.319v5c0 1.104-.896 2-2 2v1.5h17v-1.5c-1.104 0-2-.896-2-2zm-2 1.5h-9v-6.5c0-2.485 2.015-4.5 4.5-4.5 2.484 0 4.5 2.015 4.5 4.5v6.5zm-4.5 5c1.104 0 2-.896 2-2h-4c0 1.104.896 2 2 2z"/>
    </g>
    <g id="notificationsOff">
        <path fill="none" d="M24 288h-24v-24h24z"/>
        <path d="M11.5 286c1.104 0 2-.896 2-2h-4c0 1.104.896 2 2 2zm6.5-11.5c0-3.073-2.134-5.641-5-6.319v-.681c0-.829-.671-1.5-1.5-1.5s-1.5.671-1.5 1.5v.681c-.511.121-.989.321-1.445.556l9.445 9.445v-3.682zm-13.727-7.5l-1.273 1.273 2.919 2.918c-.578.971-.919 2.097-.919 3.309v5c0 1.104-.896 2-2 2v1.5h14.729l2 2 1.271-1.273-16.727-16.727z"/>
    </g>
    <g id="notificationsPaused">
        <path fill="none" d="M24 336h-24v-24h24z"/>
        <path d="M18 327.5v-5c0-3.073-2.134-5.641-5-6.319v-.681c0-.829-.671-1.5-1.5-1.5s-1.5.671-1.5 1.5v.681c-2.866.679-5 3.246-5 6.319v5c0 1.104-.896 2-2 2v1.5h17v-1.5c-1.104 0-2-.896-2-2zm-4-5.5l-2.4 3h2.4v2h-5v-2l2.4-3h-2.4v-2h5v2zM11.5 334c1.104 0 2-.896 2-2h-4c0 1.104.896 2 2 2z"/>
    </g>
    <g id="notificationsOn">
        <path fill="none" d="M24 312h-24v-24h24z"/>
        <path d="M6.578 291.578l-1.427-1.427c-2.394 1.822-3.975 4.645-4.126 7.849h2c.155-2.65 1.518-4.972 3.553-6.422zm13.397 6.422h2c-.15-3.204-1.731-6.026-4.125-7.849l-1.427 1.427c2.034 1.45 3.397 3.772 3.552 6.422zm-8.475 12c1.104 0 2-.896 2-2h-4c0 1.104.896 2 2 2zm6.5-6.5v-5c0-3.073-2.134-5.641-5-6.319v-.681c0-.829-.671-1.5-1.5-1.5s-1.5.671-1.5 1.5v.681c-2.866.679-5 3.246-5 6.319v5c0 1.104-.896 2-2 2v1.5h17v-1.5c-1.104 0-2-.896-2-2z"/>
    </g>
    <g id="personOutline">
        <path d="M12 461.9c1.158 0 2.1.941 2.1 2.1s-.941 2.1-2.1 2.1-2.1-.941-2.1-2.1.942-2.1 2.1-2.1m0 10c2.975 0 6.1 1.457 6.1 2.1v.1h-12.2v-.1c0-.643 3.126-2.1 6.1-2.1m0-11.9c-2.208 0-4 1.792-4 4 0 2.207 1.792 4 4 4s4-1.793 4-4c0-2.208-1.792-4-4-4zm0 10c-2.667 0-8 1.335-8 4v2h16v-2c0-2.665-5.333-4-8-4z"/>
        <path fill="none" d="M24 480h-24v-24h24z"/>
    </g>
    <g id="domain">
        <path fill="none" d="M24 144h-24v-24h24z"/>
        <path d="M12 127v-4h-10v18h20v-14h-10zm-6 12h-2v-2h2v2zm0-4h-2v-2h2v2zm0-4h-2v-2h2v2zm0-4h-2v-2h2v2zm4 12h-2v-2h2v2zm0-4h-2v-2h2v2zm0-4h-2v-2h2v2zm0-4h-2v-2h2v2zm10 12h-8v-2h2v-2h-2v-2h2v-2h-2v-2h8v10zm-2-8h-2v2h2v-2zm0 4h-2v2h2v-2z"/>
    </g>
</svg>
