<svg xmlns="http://www.w3.org/2000/svg" width="24" height="816" viewBox="0 0 24 816">
    <g id="notificationEmailDark">
        <path fill="none" d="M24 192h-24v-24h24zM24 192h-24v-24h24z"/>
        <path d="M18 174.5h-12c-.55 0-1 .45-1 1v9c0 .55.45 1 1 1h12c.55 0 1-.45 1-1v-9c0-.55-.45-1-1-1zm-1 3.5l-5 3-5-3v-1.5l5 3 5-3v1.5z"/>
    </g>
    <g id="statusChromeClose">
        <path fill="none" d="M24 120h-24v-24h24z"/>
        <path d="M18 112.586l-1.414 1.414-4.586-4.586-4.586 4.586-1.414-1.414 4.586-4.586-4.586-4.586 1.414-1.414 4.586 4.586 4.586-4.586 1.414 1.414-4.586 4.586z"/>
    </g>
    <g id="statusChromeExpand">
        <path fill="none" d="M24 168h-24v-24h24z"/>
        <path d="M5 150v12h14v-12h-14zm12 10h-10v-8h10v8z"/>
    </g>
    <g id="statusChromeCollapse">
        <path fill="none" d="M24 144h-24v-24h24z"/>
        <path d="M5 136v2h14v-2z"/>
    </g>
    <g id="notificationSdcardAlertDark">
        <path fill="none" d="M24 432h-24v-24h24z"/>
        <path d="M16.5 413h-7l-3 3v10c0 .55.45 1 1 1h9c.55 0 1-.45 1-1v-12c0-.55-.45-1-1-1zm-5.5 1h1v2h-1v-2zm1 11.1c-.607 0-1.1-.491-1.1-1.1s.493-1.1 1.1-1.1c.607 0 1.1.491 1.1 1.1s-.493 1.1-1.1 1.1zm1-3.1h-2v-4h2v4zm1-6h-1v-2h1v2zm2 0h-1v-2h1v2z"/>
    </g>
    <g id="notificationSyncDark">
        <path fill="none" d="M24 504h-24v-24h24z"/>
        <path d="M16 488.469l-4-2.969v2.168c-2.665 0-4.833 2.168-4.833 4.832h1.667c0-1.746 1.42-3.166 3.167-3.166v2.166l3.999-3.031zM15.167 492.5c0 1.746-1.42 3.168-3.167 3.168v-2.168l-4 3.031 4 2.969v-2.166c2.665 0 4.833-2.169 4.833-4.834h-1.666z"/>
    </g>
    <g id="notificationSdcardDark">
        <path fill="none" d="M24 408h-24v-24h24z"/>
        <path d="M16.5 389h-7l-2.989 3-.011 10c0 .55.45 1 1 1h9c.55 0 1-.45 1-1v-12c0-.55-.45-1-1-1zm-4.5 3h-1v-2h1v2zm2 0h-1v-2h1v2zm2 0h-1v-2h1v2z"/>
    </g>
    <g id="notificationImgDark">
        <path fill="none" d="M24 312h-24v-24h24z"/>
        <path d="M18 294h-12c-.55 0-1 .45-1 1v12l3-3h10c.55 0 1-.45 1-1v-8c0-.55-.45-1-1-1zm-6.001 7h-4l2-3 1.474 2.211 2.526-4.211 3 5h-5z"/>
    </g>
    <g id="notificationSmsDark">
        <path fill="none" d="M24 456h-24v-24h24z"/>
        <path d="M18 438h-12c-.549 0-1 .45-1 1v12l3-3h10c.551 0 1-.45 1-1v-8c0-.55-.449-1-1-1zm-8 5.1c-.608 0-1.1-.491-1.1-1.1s.492-1.1 1.1-1.1 1.1.491 1.1 1.1-.492 1.1-1.1 1.1zm2 2.9c-1.104 0-2-.895-2-2h4c0 1.105-.895 2-2 2zm2-2.9c-.607 0-1.1-.491-1.1-1.1s.492-1.1 1.1-1.1 1.1.491 1.1 1.1-.493 1.1-1.1 1.1z"/>
    </g>
    <g id="notificationErrorDark">
        <path fill="none" d="M24 216h-24v-24h24z"/>
        <path d="M18.874 208.098l-6.342-11.227c-.293-.494-.773-.494-1.066 0l-6.34 11.227c-.295.496-.057.902.523.902h12.699c.584 0 .819-.406.526-.902zm-6.874-.998c-.608 0-1.1-.491-1.1-1.1s.492-1.1 1.1-1.1c.607 0 1.1.491 1.1 1.1s-.493 1.1-1.1 1.1zm1-3.1h-2.001v-3.5h2.001v3.5z"/>
    </g>
    <g id="notificationUsbDark">
        <path fill="none" d="M24 552h-24v-24h24z"/>
        <path d="M14 537.5v2h.5v1.5h-2v-5h1.5l-2-3-2 3h1.5v5h-2v-1.535c.352-.183.6-.541.6-.965 0-.607-.493-1.1-1.1-1.1s-1.1.492-1.1 1.1c0 .424.248.782.6.965v1.535c0 .553.447 1 1 1h2v2.092c-.581.207-1 .756-1 1.408 0 .829.671 1.5 1.5 1.5s1.5-.671 1.5-1.5c0-.652-.419-1.202-1-1.408v-2.092h2c.553 0 1-.447 1-1v-1.5h.5v-2h-2z"/>
    </g>
    <g id="notificationImDark">
        <path fill="none" d="M24 288h-24v-24h24z"/>
        <path d="M18 270h-12c-.55 0-1 .45-1 1v12l3-3h10c.55 0 1-.45 1-1v-8c0-.55-.45-1-1-1zm-2 7h-8v-1.5h8v1.5zm0-3h-8v-1.5h8v1.5z"/>
    </g>
    <g id="notificationSmsFailedDark">
        <path fill="none" d="M24 480h-24v-24h24z"/>
        <path d="M18 462h-12c-.549 0-1 .45-1 1v12l3-3h10c.551 0 1-.45 1-1v-8c0-.55-.449-1-1-1zm-6 8c-.552 0-1-.447-1-1s.448-1 1-1 1 .447 1 1-.448 1-1 1zm1-3h-2v-3h2v3z"/>
    </g>
    <g id="notificationSystemUpdateDark">
        <path fill="none" d="M24 528h-24v-24h24z"/>
        <path d="M15 515.5h-2v-3h-2v3h-2l3 3 3-3zm2-6.5h-10c-.55 0-1 .45-1 1v12c0 .55.45 1 1 1h10c.55 0 1-.45 1-1v-12c0-.55-.45-1-1-1zm-1 11h-8v-9h8v9z"/>
    </g>
    <g id="notificationCalendarDark">
        <path fill="none" d="M24 96h-24v-24h24z"/>
        <path d="M11.5 82.5h-3v3h3v-3zm6-5h-2v-1h-1v1h-5v-1h-1v1h-2c-.55 0-1 .45-1 1v11c0 .55.45 1 1 1h11c.55 0 1-.45 1-1v-11c0-.55-.45-1-1-1zm-1 11h-9v-7h9v7z"/>
    </g>
    <g id="notificationAdbDark">
        <path fill="none" d="M24 24h-24v-24h24z"/>
        <path d="M6.25 12c-.415 0-.75.335-.75.75v5c0 .415.335.75.75.75s.75-.335.75-.75v-5c0-.415-.335-.75-.75-.75zm1.25 6.5h9v-6.5h-9v6.5zm7.15-11.12l1.35-1.35-.529-.53-1.482 1.482c-.602-.299-1.272-.482-1.989-.482s-1.386.183-1.988.482l-1.482-1.482-.53.53 1.349 1.35c-1.116.819-1.849 2.129-1.849 3.62v.5h9v-.5c0-1.491-.732-2.801-1.85-3.62zm-4.65 2.82c-.387 0-.7-.313-.7-.7s.313-.7.7-.7.7.313.7.7-.313.7-.7.7zm4 0c-.387 0-.7-.313-.7-.7s.313-.7.7-.7.7.313.7.7-.313.7-.7.7zm3.75 1.8c-.415 0-.75.335-.75.75v5c0 .415.335.75.75.75s.75-.335.75-.75v-5c0-.415-.335-.75-.75-.75z"/>
    </g>
    <g id="notificationMarketInstallDark">
        <path fill="none" d="M24 336h-24v-24h24z"/>
        <path d="M18 319.5h-2.5v-1l-1.5-1.5h-4l-1.5 1.5v1h-2.5c-.55 0-1 .45-1 1v9c0 .55.45 1 1 1h12c.55 0 1-.45 1-1v-9c0-.55-.45-1-1-1zm-8-1h4v1h-4v-1zm.499 10l-3.15-3.152.849-.848 2.301 2.303 5.303-5.303.849.849-6.152 6.151z"/>
    </g>
    <g id="notificationMarketUpdateDark">
        <path fill="none" d="M24 360h-24v-24h24z"/>
        <path d="M18 343.5h-2.5v-1l-1.5-1.5h-4l-1.5 1.5v1h-2.5c-.55 0-1 .45-1 1v9c0 .55.45 1 1 1h12c.55 0 1-.45 1-1v-9c0-.55-.45-1-1-1zm-4 0h-4v-1h4v1z"/>
        <path fill="#fff" d="M10.8 347v2.693h-1.8l3 3 3-3h-1.8v-2.693z"/>
    </g>
    <g id="notificationGmailDark">
        <path fill="none" d="M24 240h-24v-24h24z"/>
        <path d="M18 222.5h-12c-.55 0-1 .45-1 1v9c0 .55.45 1 1 1h12c.55 0 1-.45 1-1v-9c0-.55-.45-1-1-1zm-1 9h-1.5v-4.6l-3.5 2.1-3.5-2.1v4.6h-1.5v-7.5l5 3 5-3v7.5z"/>
    </g>
    <g id="notificationBluetoothConnectedDark">
        <path fill="none" d="M24 72h-24v-24h24z"/>
        <path d="M16 59.5l3 2v-4zM13.001 59.499l4.5-3-6.001-3.999v6.002l-2.362-1.572-.638.957 2.412 1.604-2.412 1.603.638.957 2.362-1.57v6.02l6.001-4.001-4.5-3.001zm2.427-3l-.002-.001.002.001zm-2.678-1.784l2.657 1.771-2.657 1.775v-3.546zm0 9.57v-3.57l2.678 1.784-2.678 1.786z"/>
    </g>
    <g id="notificationBluetoothDark">
        <path fill="none" d="M24 48h-24v-24h24z"/>
        <path d="M12.501 35.499l4.5-3-6.001-3.999v6.002l-2.362-1.572-.638.957 2.412 1.604-2.412 1.603.638.957 2.362-1.571v6.02l6.001-4.001-4.5-3zm2.427-3l-.002-.001.002.001zm-2.678-1.784l2.657 1.771-2.657 1.775v-3.546zm0 9.57v-3.57l2.678 1.784-2.678 1.786z"/>
    </g>
    <g id="notificationMoreDark">
        <path fill="none" d="M24 384h-24v-24h24z"/>
        <path d="M18 366h-11l-4 6 4 6h11c.55 0 1-.45 1-1v-10c0-.55-.45-1-1-1zm-9.5 7.1c-.607 0-1.1-.492-1.1-1.1s.493-1.1 1.1-1.1 1.1.492 1.1 1.1-.493 1.1-1.1 1.1zm3.5 0c-.607 0-1.1-.492-1.1-1.1s.493-1.1 1.1-1.1c.607 0 1.1.492 1.1 1.1s-.493 1.1-1.1 1.1zm3.5 0c-.607 0-1.1-.492-1.1-1.1s.492-1.1 1.1-1.1 1.1.492 1.1 1.1-.493 1.1-1.1 1.1z"/>
    </g>
    <g id="notificationKeepDark">
        <path d="M14.5 252.571v-4.571c.553 0 1-.448 1-1v-1h-7v1c0 .552.447 1 1 1v4.571c-.861.223-1.5.998-1.5 1.929v.5h3.626v3.5h.749v-3.5h3.625v-.5c0-.931-.639-1.706-1.5-1.929z"/>
        <path fill="none" d="M24 264h-24v-24h24z"/>
    </g>
</svg>
