<svg xmlns="http://www.w3.org/2000/svg" width="24" height="816" viewBox="0 0 24 816">
    <g id="checkboxBlank">
        <path d="M19 147h-14c-1.104 0-1.99.896-1.99 2l-.01 14c0 1.104.896 2 2 2h14c1.104 0 2-.896 2-2v-14c0-1.104-.896-2-2-2z"/>
        <path fill="none" d="M24 168h-24v-24h24z"/>
    </g>
    <g id="checkboxOutline">
        <path d="M19 173v14l-14 .001v-14.001h14m0-2h-14c-1.104 0-2 .896-2 2v14c0 1.104.896 2 2 2h14c1.104 0 2-.896 2-2v-14c0-1.104-.896-2-2-2z"/>
        <path fill="none" d="M24 192h-24v-24h24z"/>
    </g>
    <g id="checkcircleBlank">
        <path d="M12 218c-5.523 0-10 4.477-10 10 0 5.522 4.477 10 10 10 5.521 0 10-4.478 10-10 0-5.523-4.479-10-10-10z"/>
        <path fill="none" d="M24 240h-24v-24h24z"/>
    </g>
    <g id="checkcircle">
        <path fill="none" d="M24 216h-24v-24h24z"/>
        <path d="M12 194c-5.523 0-10 4.477-10 10 0 5.522 4.477 10 10 10 5.521 0 10-4.478 10-10 0-5.523-4.479-10-10-10zm-2 15l-5-5 1.414-1.414 3.586 3.586 7.586-7.586 1.414 1.414-9 9z"/>
    </g>
    <g id="checkbox">
        <path fill="none" d="M24 144h-24v-24h24z"/>
        <path d="M19 123h-14c-1.105 0-2 .896-2 2v14c0 1.104.895 2 2 2h14c1.105 0 2-.896 2-2v-14c0-1.104-.895-2-2-2zm-9 14l-5-5 1.414-1.414 3.586 3.586 7.586-7.586 1.414 1.414-9 9z"/>
    </g>
    <g id="starOutline">
        <path d="M12 78.613l1.575 3.715 4.026.346-3.056 2.648.916 3.937-3.461-2.089-3.461 2.088.916-3.937-3.056-2.648 4.027-.346 1.574-3.714m0-4.613l-2.809 6.627-7.191.617 5.455 4.727-1.635 7.029 6.18-3.728 6.18 3.728-1.635-7.029 5.455-4.727-7.191-.617-2.809-6.627z"/>
        <path fill="none" d="M24 96h-24v-24h24z"/>
    </g>
    <g id="star">
        <path d="M12 65.272l6.18 3.728-1.635-7.029 5.455-4.727-7.191-.617-2.809-6.627-2.809 6.627-7.191.617 5.455 4.727-1.635 7.029z"/>
        <path fill="none" d="M24 72h-24v-24h24z"/>
    </g>
    <g id="radioButtonOn">
        <path d="M12 31c-2.762 0-5 2.238-5 5s2.238 5 5 5 5-2.238 5-5-2.238-5-5-5zm0-5c-5.523 0-10 4.477-10 10s4.477 10 10 10 10-4.477 10-10-4.477-10-10-10zm0 18c-4.418 0-8-3.582-8-8s3.582-8 8-8 8 3.582 8 8-3.582 8-8 8z"/>
        <path fill="none" d="M24 48h-24v-24h24z"/>
    </g>
    <g id="radioButtonOff">
        <path d="M12 2c-5.523 0-10 4.477-10 10s4.477 10 10 10 10-4.477 10-10-4.477-10-10-10zm0 18c-4.418 0-8-3.582-8-8s3.582-8 8-8 8 3.582 8 8-3.582 8-8 8z"/>
        <path fill="none" d="M24 24h-24v-24h24z"/>
    </g>
    <g id="checkcircleOutline">
        <path d="M12 242c-5.523 0-10 4.477-10 10s4.477 10 10 10 10-4.477 10-10-4.477-10-10-10zm0 18c-4.418 0-8-3.582-8-8s3.582-8 8-8 8 3.582 8 8-3.582 8-8 8z"/>
        <path fill="none" d="M24 264h-24v-24h24z"/>
    </g>
    <g id="starHalf">
        <path d="M12 102.613l1.575 3.715 4.026.346-3.056 2.648.916 3.937-3.461-2.089v-8.557m0-4.613l-2.809 6.627-7.191.617 5.455 4.727-1.635 7.029 6.18-3.728 6.18 3.728-1.635-7.029 5.455-4.727-7.191-.617-2.809-6.627z"/>
        <path fill="none" d="M24 120h-24v-24h24z"/>
    </g>
</svg>
