<svg xmlns="http://www.w3.org/2000/svg" width="24" height="816" viewBox="0 0 24 816">
    <g id="sports">
        <path fill="none" d="M24 216h-24v-24h24z"/>
        <path d="M4.119 197.86c-1.323 1.694-2.118 3.822-2.118 6.14s.795 4.445 2.118 6.141c1.759-1.47 2.881-3.676 2.881-6.141s-1.122-4.671-2.881-6.14zm10.881 6.14c0-3.04 1.361-5.757 3.5-7.591-1.748-1.498-4.016-2.409-6.499-2.409-2.484 0-4.752.911-6.501 2.41 2.14 1.834 3.5 4.551 3.5 7.59s-1.36 5.756-3.5 7.59c1.749 1.499 4.016 2.41 6.5 2.41 2.482 0 4.751-.911 6.5-2.409-2.139-1.834-3.5-4.551-3.5-7.591zm4.882-6.142c-1.759 1.469-2.882 3.676-2.882 6.142 0 2.465 1.123 4.672 2.882 6.142 1.323-1.695 2.119-3.823 2.119-6.142s-.796-4.446-2.119-6.142z"/>
    </g>
    <g id="dining">
        <path d="M8 46h2v-8h-2v8zm-2-20h-1v20h2v-10.177c1.723-.558 3-2.496 3-4.823 0-2.762-1.791-5-4-5zm5 20h2v-8h-2v8zm4-20c-2.209 0-4 2.238-4 5 0 2.327 1.278 4.266 3 4.823v10.177h2v-10.177c1.723-.559 3-2.496 3-4.823 0-2.762-1.791-5-4-5z"/>
        <path fill="none" d="M24 48h-24v-24h24z"/>
    </g>
    <g id="radio">
        <path d="M22 151c0-1.105-.895-2-2-2h-11.697l5.697-2.337-.688-1.663-10.077 4.151c-.725.282-1.235 1.015-1.235 1.849v12c0 1.104.895 2 2 2h16c1.105 0 2-.896 2-2v-12zm-15 12c-1.657 0-3-1.343-3-3s1.343-3 3-3 3 1.343 3 3-1.343 3-3 3zm13-8h-16v-4h16v4z"/>
        <path fill="none" d="M24 168h-24v-24h24z"/>
    </g>
    <g id="office">
        <path d="M10.845 111.037c.275-.332.69-.543 1.155-.543s.88.211 1.154.543l1.367 1.646c-.324.53-.521 1.149-.521 1.817 0 1.933 1.566 3.5 3.5 3.5s3.5-1.567 3.5-3.5-1.566-3.5-3.5-3.5c-.438 0-.854.09-1.241.237l-1.983-2.389 4.916-5.92c1.235-1.486 1.031-3.693-.455-4.929l-6.737 8.111-2.275 2.738-1.984 2.389c-.387-.147-.803-.237-1.241-.237-1.933 0-3.5 1.567-3.5 3.5s1.567 3.5 3.5 3.5 3.5-1.567 3.5-3.5c0-.668-.197-1.287-.522-1.817l1.367-1.646zm-4.07 4.938c-.814.152-1.598-.385-1.75-1.198-.152-.814.385-1.599 1.199-1.75.814-.152 1.598.385 1.75 1.198.152.814-.384 1.597-1.199 1.75zm5.225-6.225c-.414 0-.75-.336-.75-.75s.336-.75.75-.75.75.336.75.75-.336.75-.75.75zm5.5 6.25c-.829 0-1.5-.671-1.5-1.5s.671-1.5 1.5-1.5 1.5.671 1.5 1.5-.671 1.5-1.5 1.5zm-8.75-8.325l2.25-2.675-5.736-7c-1.487 1.235-1.691 3.442-.456 4.929l3.942 4.746z"/>
        <path fill="none" d="M24 120h-24v-24h24z"/>
    </g>
    <g id="recipes">
        <path fill="none" d="M24 192h-24v-24h24z"/>
        <path d="M9 180c-.604.457-1 1.174-1 1.989 0 .814.396 1.554 1 2.011.604-.457 1-1.196 1-2.011 0-.815-.396-1.532-1-1.989zm7.4-6.92c-.858 0-1.67.194-2.4.533v-4.613h-2v4.526c-.141-1.101-.62-2.163-1.466-3.01-1.209-1.208-2.862-1.635-4.434-1.417-.196 1.413.176 2.837 1.129 3.999-3.471.194-6.229 3.062-6.229 6.582 0 4.396 1.983 7.327 5.103 9.95.999.85 2.283 1.37 3.697 1.37.78 0 1.523-.157 2.2-.44.677.283 1.42.44 2.2.44 1.413 0 2.698-.52 3.696-1.37 3.121-2.623 5.104-5.555 5.104-9.95 0-3.645-2.955-6.6-6.6-6.6zm-4.4 15.308c-.624.443-1.378.712-2.2.712-1.147 0-1.974-.499-2.474-.924-2.813-2.364-4.426-4.826-4.426-8.496 0-2.592 2.108-4.699 4.7-4.699 2.026 0 3.741 1.296 4.4 3.097v10.31z"/>
    </g>
    <g id="family">
        <path fill="none" d="M24 72h-24v-24h24z"/>
        <path fill="#231F20" d="M16.748 58.313c-.486-1.35-1.777-2.214-3.294-2.214-3.323.001-6.084.929-8.454 2.901l4.776 4.776h4.632l1.701 4.884c.274.78 1.017 1.34 1.891 1.34 1.104 0 2-.895 2-2 0-.231-.039-.454-.111-.66l-3.141-9.027zm-5.327 7.687h-8.421c-1.105 0-2 .895-2 2s.895 2 2 2h7c1.104 0 2-.895 2-2 0-.231-.039-.454-.111-.66l-.468-1.34zm7.579-14.9c-1.602 0-2.9 1.299-2.9 2.9s1.299 2.9 2.9 2.9 2.9-1.299 2.9-2.9-1.298-2.9-2.9-2.9z"/>
    </g>
    <g id="iocHealth">
        <path d="M16.5 77c-1.955 0-3.83 1.268-4.5 3-.67-1.732-2.547-3-4.5-3-2.543 0-4.5 1.932-4.5 4.5 0 3.529 3.793 6.258 9 11.5 5.207-5.242 9-7.971 9-11.5 0-2.568-1.957-4.5-4.5-4.5zm-4.5 11l-4-4 1.414-1.414 2.586 2.586 5.586-5.586 1.414 1.414-7 7z"/>
        <path fill="none" d="M24 96h-24v-24h24z"/>
    </g>
    <g id="attractions">
        <path d="M22 10v-4c0-1.104-.896-2-2-2h-16c-1.104 0-2 .896-2 2v4c1.104 0 2 .896 2 2s-.896 2-2 2v4c0 1.104.896 2 2 2h16c1.104 0 2-.896 2-2v-4c-1.104 0-2-.896-2-2s.896-2 2-2zm-6.869 6.5l-3.131-1.889-3.131 1.889.828-3.561-2.697-2.439 3.577-.27 1.423-3.23 1.423 3.23 3.577.27-2.697 2.439.828 3.561z"/>
        <path fill="none" d="M24 24h-24v-24h24z"/>
    </g>
    <g id="promotions">
        <path d="M2 131c.001.553.225 1.052.586 1.414v.001l9.003 8.999c.362.361.862.586 1.415.586s1.053-.224 1.414-.585l6.994-6.995c.363-.361.588-.863.588-1.416s-.225-1.053-.586-1.414l-9-9.004c-.363-.361-.862-.585-1.414-.586h-9v9zm3.5-4c-.828 0-1.5-.672-1.5-1.5s.672-1.5 1.5-1.5 1.5.672 1.5 1.5-.672 1.5-1.5 1.5z"/>
        <path fill="none" d="M24 144h-24v-24h24z"/>
    </g>
    <g id="travel">
        <path d="M15 226.182"/>
        <path d="M22 227.5c0-.828-.671-1.5-1.5-1.5h-5.5l-5-8h-2l2.5 8h-5.5l-1.5-2h-1.5l1 3.5-1 3.5h1.5l1.5-2h5.5l-2.5 8h2l5-8h5.5c.829 0 1.5-.672 1.5-1.5z"/>
        <path fill="none" d="M24 240h-24v-24h24z"/>
    </g>
</svg>
